<svg width="3000" height="3000" viewBox="0 0 3000 3000" fill="none" xmlns="http://www.w3.org/2000/svg">
<rect width="3000" height="3000" fill="#FFF7E5"/>
<path d="M1073.53 987.898V1457.81H1016.99C992.758 1457.81 972.934 1438.72 972.934 1414.49V1045.17H866.469L504.487 1443.86C495.676 1453.41 483.928 1458.55 471.446 1457.81H355.436L809.198 958.528C817.275 948.983 829.022 943.844 841.505 943.844H1029.47C1053.7 944.578 1073.53 963.668 1073.53 987.898Z" fill="#2E294E"/>
<path d="M1225.78 1045.17V1414.49C1225.78 1438.72 1205.95 1457.81 1181.72 1457.81H1125.19V943.844H1676.6C1768.38 944.578 1842.54 1018.74 1843.28 1110.52V1135.48C1842.54 1223.59 1774.26 1296.28 1686.15 1301.42L1843.28 1457.81H1719.19C1707.44 1458.55 1691.22 1457.81 1686.15 1434.69C1686.15 1434.69 1634.76 1223.59 1341.57 1200.83C1048.38 1178.07 1672.2 1200.83 1672.2 1200.83C1711.11 1200.83 1742.68 1169.26 1742.68 1130.34V1115.66C1742.68 1076.74 1711.11 1045.17 1672.2 1045.17H1225.78Z" fill="#2E294E"/>
<path d="M2085.13 944.578H2569V1001.11C2569 1025.34 2549.17 1045.17 2524.94 1045.17H2091.74C2013.91 1045.17 1951.5 1107.58 1951.5 1185.41V1216.98C1951.5 1294.81 2013.91 1357.22 2091.74 1357.22H2524.94C2549.17 1357.22 2569 1377.05 2569 1401.28V1457.81H2085.13C1955.91 1457.81 1850.91 1352.82 1850.91 1223.59V1178.8C1850.91 1049.57 1955.91 944.578 2085.13 944.578Z" fill="#2E294E"/>
<path fill-rule="evenodd" clip-rule="evenodd" d="M1875.46 1955.61H1244.74C1220.51 1955.61 1201.42 1975.43 1201.42 1999.66V2056.2H1919.51V1999.66C1919.51 1975.43 1899.69 1955.61 1875.46 1955.61ZM1244.74 1749.28C1220.51 1749.28 1201.42 1769.11 1201.42 1793.34V1849.88H1824.79C1849.02 1849.88 1868.85 1830.05 1868.85 1805.82V1749.28H1244.74Z" fill="#2E294E"/>
<path d="M976.061 1542.23L552.859 1542.23C476.498 1542.97 414.822 1604.64 414.822 1681V2056.2H471.358C495.588 2056.2 515.413 2037.11 515.413 2012.88V1684.67C515.413 1661.91 533.769 1643.56 556.53 1643.56H991.202C1013.96 1643.56 1032.32 1661.91 1032.32 1684.67V2012.88C1032.32 2037.11 1052.14 2056.2 1076.37 2056.2H1132.91V1681.74C1132.91 1668.48 1131.06 1655.67 1127.62 1643.55H1894.23H1993.67H2159.29V2056.2H2215.83C2240.06 2056.2 2259.88 2037.11 2259.88 2012.88V1643.55H2569V1586.28C2569 1562.05 2549.17 1542.96 2524.94 1542.23H2037.73H1850.91H976.061Z" fill="#2E294E"/>
</svg>
