<svg width="3000" height="3000" viewBox="0 0 3000 3000" fill="none" xmlns="http://www.w3.org/2000/svg">
<path d="M975.642 858.934V1447.19H904.868C874.536 1447.19 849.719 1423.29 849.719 1392.96V930.627H716.443L263.304 1429.72C252.275 1441.67 237.568 1448.11 221.943 1447.19H76.7178L644.75 822.168C654.86 810.219 669.567 803.785 685.192 803.785H920.493C950.825 804.704 975.642 828.602 975.642 858.934Z" fill="#FFF7E5"/>
<path d="M1166.24 930.627V1392.96C1166.24 1423.29 1141.42 1447.19 1111.09 1447.19H1040.31V803.785H1730.59C1845.48 804.704 1938.32 897.538 1939.24 1012.43V1043.68C1938.32 1153.98 1852.84 1244.97 1742.54 1251.41L1939.24 1447.19H1783.9C1769.19 1448.11 1748.89 1447.19 1742.54 1418.24C1742.54 1418.24 1678.21 1153.98 1311.19 1125.49C944.162 1096.99 1725.08 1125.49 1725.08 1125.49C1773.79 1125.49 1813.31 1085.96 1813.31 1037.25V1018.87C1813.31 970.15 1773.79 930.627 1725.08 930.627H1166.24Z" fill="#FFF7E5"/>
<path d="M2242 804.704H2847.72V875.478C2847.72 905.81 2822.9 930.627 2792.57 930.627H2250.27C2152.84 930.627 2074.72 1008.75 2074.72 1106.18V1145.71C2074.72 1243.14 2152.84 1321.26 2250.27 1321.26H2792.57C2822.9 1321.26 2847.72 1346.08 2847.72 1376.41V1447.19H2242C2080.23 1447.19 1948.79 1315.75 1948.79 1153.98V1097.91C1948.79 936.142 2080.23 804.704 2242 804.704Z" fill="#FFF7E5"/>
<path fill-rule="evenodd" clip-rule="evenodd" d="M1979.52 2070.34H1189.97C1159.64 2070.34 1135.74 2095.15 1135.74 2125.49V2196.26H2034.67V2125.49C2034.67 2095.15 2009.85 2070.34 1979.52 2070.34ZM1189.97 1812.06C1159.64 1812.06 1135.74 1836.87 1135.74 1867.21V1937.98H1916.1C1946.43 1937.98 1971.25 1913.16 1971.25 1882.83V1812.06H1189.97Z" fill="#FFF7E5"/>
<path d="M853.634 1552.86L323.857 1552.86C228.266 1553.78 151.059 1630.99 151.059 1726.58V2196.27H221.832C252.164 2196.27 276.981 2172.37 276.981 2142.04V1731.18C276.981 1702.68 299.96 1679.71 328.453 1679.71H872.588C901.081 1679.71 924.059 1702.68 924.059 1731.18V2142.04C924.059 2172.37 948.876 2196.27 979.208 2196.27H1049.98V1727.5C1049.98 1710.9 1047.67 1694.87 1043.36 1679.7H2003.02H2127.51H2334.83V2196.26H2405.61C2435.94 2196.26 2460.76 2172.36 2460.76 2142.03V1679.7H2847.72V1608.01C2847.72 1577.68 2822.9 1553.78 2792.57 1552.86H2182.65H1948.79H853.634Z" fill="#FFF7E5"/>
</svg>
