<svg width="3000" height="3000" viewBox="0 0 3000 3000" fill="none" xmlns="http://www.w3.org/2000/svg">
<rect width="3000" height="3000" fill="#011638"/>
<path d="M1073.53 987.902V1457.82H1016.99C992.759 1457.82 972.934 1438.73 972.934 1414.5V1045.17H866.469L504.487 1443.87C495.676 1453.41 483.929 1458.55 471.447 1457.82H355.436L809.198 958.532C817.275 948.987 829.023 943.848 841.505 943.848H1029.47C1053.7 944.582 1073.53 963.672 1073.53 987.902Z" fill="#FFF7E5"/>
<path d="M1225.78 1045.17V1414.5C1225.78 1438.73 1205.95 1457.82 1181.72 1457.82H1125.19V943.848H1676.6C1768.38 944.582 1842.54 1018.74 1843.28 1110.52V1135.49C1842.54 1223.59 1774.26 1296.28 1686.15 1301.42L1843.28 1457.82H1719.19C1707.44 1458.55 1691.22 1457.82 1686.15 1434.69C1686.15 1434.69 1634.76 1223.59 1341.57 1200.83C1048.38 1178.07 1672.2 1200.83 1672.2 1200.83C1711.11 1200.83 1742.68 1169.26 1742.68 1130.35V1115.66C1742.68 1076.75 1711.11 1045.17 1672.2 1045.17H1225.78Z" fill="#FFF7E5"/>
<path d="M2085.13 944.582H2569V1001.12C2569 1025.35 2549.18 1045.17 2524.95 1045.17H2091.74C2013.91 1045.17 1951.5 1107.58 1951.5 1185.41V1216.99C1951.5 1294.82 2013.91 1357.23 2091.74 1357.23H2524.95C2549.18 1357.23 2569 1377.05 2569 1401.28V1457.82H2085.13C1955.91 1457.82 1850.91 1352.82 1850.91 1223.59V1178.81C1850.91 1049.58 1955.91 944.582 2085.13 944.582Z" fill="#FFF7E5"/>
<path fill-rule="evenodd" clip-rule="evenodd" d="M1875.46 1955.61H1244.74C1220.51 1955.61 1201.42 1975.43 1201.42 1999.67V2056.2H1919.51V1999.67C1919.51 1975.43 1899.69 1955.61 1875.46 1955.61ZM1244.74 1749.29C1220.51 1749.29 1201.42 1769.11 1201.42 1793.34V1849.88H1824.79C1849.02 1849.88 1868.85 1830.05 1868.85 1805.82V1749.29H1244.74Z" fill="#FFF7E5"/>
<path d="M976.062 1542.23L552.859 1542.24C476.498 1542.97 414.822 1604.65 414.822 1681.01V2056.21H471.358C495.588 2056.21 515.413 2037.12 515.413 2012.89V1684.68C515.413 1661.92 533.769 1643.56 556.53 1643.56H991.202C1013.96 1643.56 1032.32 1661.92 1032.32 1684.68V2012.89C1032.32 2037.12 1052.14 2056.21 1076.37 2056.21H1132.91V1681.74C1132.91 1668.48 1131.06 1655.67 1127.62 1643.56H1894.23H1993.67H2159.29V2056.2H2215.83C2240.06 2056.2 2259.88 2037.11 2259.88 2012.88V1643.56H2569V1586.29C2569 1562.06 2549.18 1542.97 2524.95 1542.23H2037.73H1850.91H976.062Z" fill="#FFF7E5"/>
</svg>
