<?xml version="1.0" standalone="no"?>
<!DOCTYPE svg PUBLIC "-//W3C//DTD SVG 20010904//EN"
 "http://www.w3.org/TR/2001/REC-SVG-20010904/DTD/svg10.dtd">
<svg version="1.0" xmlns="http://www.w3.org/2000/svg"
 width="3000.000000pt" height="3000.000000pt" viewBox="0 0 3000.000000 3000.000000"
 preserveAspectRatio="xMidYMid meet">
<metadata>
Created by potrace 1.16, written by Peter Selinger 2001-2019
</metadata>
<g transform="translate(0.000000,3000.000000) scale(0.100000,-0.100000)"
fill="#000000" stroke="none">
<path d="M5275 17031 c-22 -10 -59 -38 -82 -62 -23 -24 -609 -667 -1301 -1429
l-1259 -1385 339 -3 c355 -2 389 1 449 41 18 12 496 532 1062 1155 l1028 1132
299 0 299 0 3 -1067 c3 -1189 -2 -1106 71 -1181 67 -70 91 -76 305 -80 l192
-4 0 1354 0 1353 -24 50 c-28 60 -66 97 -126 124 -44 20 -63 21 -630 21 -545
0 -588 -2 -625 -19z"/>
<path d="M6972 15603 l3 -1448 190 0 c185 0 192 1 240 26 56 28 109 91 125
147 6 24 10 397 10 1095 l0 1057 1313 -2 1312 -3 66 -32 c85 -42 168 -129 201
-210 20 -51 23 -75 23 -193 0 -131 -1 -137 -32 -202 -40 -84 -97 -147 -170
-186 -82 -43 -155 -55 -282 -48 -58 4 -324 13 -591 21 -1135 35 -1610 43
-1610 26 0 -10 38 -15 340 -41 274 -24 396 -41 565 -82 334 -79 631 -219 880
-413 106 -83 274 -259 358 -376 79 -111 185 -319 223 -439 30 -93 61 -133 115
-144 17 -3 199 -6 403 -6 l371 0 -438 438 c-240 240 -437 440 -437 445 0 4 15
7 34 7 51 0 213 44 289 78 209 95 405 301 486 510 52 137 65 217 64 422 0 167
-3 194 -26 284 -89 334 -342 593 -672 688 l-80 23 -1638 3 -1637 2 2 -1447z"/>
<path d="M12235 17039 c-402 -52 -748 -274 -966 -619 -102 -162 -166 -346
-189 -549 -17 -139 -7 -548 14 -651 86 -412 348 -749 723 -934 102 -50 185
-79 315 -109 92 -21 105 -21 1541 -24 l1447 -4 0 188 c0 176 -2 191 -24 238
-23 52 -63 92 -120 123 -29 16 -130 17 -1361 22 -1496 6 -1363 -1 -1540 85
-161 78 -273 191 -355 360 -67 137 -80 209 -80 443 0 218 14 292 79 427 97
201 258 340 486 417 l70 23 1489 3 1488 2 -6 -22 c-23 -83 -26 -284 -24 -1258
l3 -1045 160 -3 c88 -1 183 2 211 8 67 14 125 56 161 117 l28 48 5 995 5 995
22 42 c27 50 86 100 133 113 53 15 2551 13 2601 -1 55 -17 108 -65 135 -123
l24 -51 0 -965 c0 -634 4 -978 10 -1002 16 -56 69 -119 125 -147 48 -25 55
-26 240 -26 l190 0 3 1050 c3 983 -1 1167 -24 1253 l-6 22 2901 0 2901 0 2
-1162 3 -1163 190 0 190 0 53 29 c57 32 98 79 118 135 10 28 13 260 14 1099
l0 1062 870 0 870 0 0 193 c0 165 -3 198 -19 232 -23 51 -98 118 -149 133 -48
15 -14844 15 -14957 1z"/>
<path d="M19782 15854 c-29 -14 -64 -40 -77 -58 -50 -66 -55 -92 -55 -291 l0
-185 1776 0 c1366 0 1786 3 1818 12 55 16 140 101 155 154 6 21 11 119 11 217
l0 177 -1788 0 -1788 0 -52 -26z"/>
<path d="M19818 14708 c-49 -13 -126 -82 -149 -133 -16 -34 -19 -67 -19 -232
l0 -193 2026 0 2026 0 -4 193 c-3 191 -3 192 -32 245 -16 28 -45 64 -64 78
-74 57 26 54 -1936 53 -1156 -1 -1824 -5 -1848 -11z"/>
<path d="M26366 13516 c-100 -37 -145 -141 -94 -216 30 -44 85 -75 169 -95
123 -29 169 -46 179 -65 26 -49 -3 -96 -69 -111 -89 -20 -181 14 -211 78 -14
30 -19 33 -62 33 -56 0 -60 -10 -28 -75 23 -48 87 -98 145 -114 50 -14 158
-14 208 0 113 31 162 164 92 248 -29 34 -81 56 -179 77 -123 25 -166 49 -166
91 0 59 91 96 176 73 47 -13 84 -49 84 -81 0 -16 8 -19 50 -19 55 0 59 7 37
65 -33 85 -88 118 -206 122 -58 2 -99 -2 -125 -11z"/>
<path d="M4210 13235 l0 -285 230 0 230 0 0 40 0 40 -177 2 -178 3 -3 243 -2
242 -50 0 -50 0 0 -285z"/>
<path d="M11597 13248 c-66 -149 -121 -277 -124 -285 -4 -10 8 -13 48 -13 l54
0 26 63 25 62 145 3 144 2 26 -62 25 -63 53 -3 c48 -3 53 -1 47 15 -4 10 -60
138 -124 285 l-117 268 -55 0 -55 0 -118 -272z m269 -60 c5 -16 -4 -18 -95
-18 -56 0 -101 2 -101 4 0 2 16 42 36 88 19 45 42 99 50 118 l15 35 45 -105
c24 -58 47 -113 50 -122z"/>
<path d="M18900 13234 l0 -285 203 3 c190 3 204 4 242 26 59 35 79 67 79 129
0 44 -4 57 -28 82 -18 19 -45 34 -70 39 l-41 8 50 24 c42 21 52 32 63 67 26
81 -19 158 -106 183 -20 5 -117 10 -214 10 l-178 0 0 -286z m360 188 c30 -15
35 -23 38 -57 6 -76 -34 -94 -200 -95 l-98 0 0 85 0 85 113 0 c87 0 120 -4
147 -18z m30 -247 c34 -18 45 -49 31 -87 -16 -43 -45 -52 -188 -56 l-133 -4 0
81 0 81 130 0 c98 0 138 -4 160 -15z"/>
</g>
</svg>
