<svg width="5000" height="5000" viewBox="0 0 5000 5000" fill="none" xmlns="http://www.w3.org/2000/svg">
<g clip-path="url(#clip0_2050_36)">
<path d="M946.318 150H422.961C402.855 150 387.014 166.45 387.014 186.556V233.469H982.874V186.556C982.874 166.45 966.424 150 946.318 150Z" fill="#FFF7E5"/>
<path d="M220.414 150H-302.944C-323.05 150 -338.891 166.45 -338.891 186.556V233.469H256.969V186.556C256.969 166.45 240.519 150 220.414 150Z" fill="#FFF7E5"/>
<path d="M1672.22 150H1148.87C1128.76 150 1112.92 166.45 1112.92 186.556V233.469H1708.78V186.556C1708.78 166.45 1692.33 150 1672.22 150Z" fill="#FFF7E5"/>
<path d="M2398.13 150H1874.77C1854.66 150 1838.82 166.45 1838.82 186.556V233.469H2434.68V186.556C2434.68 166.45 2418.23 150 2398.13 150Z" fill="#FFF7E5"/>
<path d="M3124.03 150H2600.67C2580.57 150 2564.73 166.45 2564.73 186.556V233.469H3160.59V186.556C3160.59 166.45 3144.14 150 3124.03 150Z" fill="#FFF7E5"/>
<path d="M3849.94 150H3326.58C3306.47 150 3290.63 166.45 3290.63 186.556V233.469H3886.49V186.556C3886.49 166.45 3870.04 150 3849.94 150Z" fill="#FFF7E5"/>
<path d="M4575.84 150H4052.48C4032.38 150 4016.54 166.45 4016.54 186.556V233.469H4612.4V186.556C4612.4 166.45 4595.95 150 4575.84 150Z" fill="#FFF7E5"/>
<path d="M5301.75 150H4778.39C4758.28 150 4742.44 166.45 4742.44 186.556V233.469H5338.3V186.556C5338.3 166.45 5321.85 150 5301.75 150Z" fill="#FFF7E5"/>
<path d="M946.318 374H422.961C402.855 374 387.014 390.45 387.014 410.556V457.469H982.874V410.556C982.874 390.45 966.424 374 946.318 374Z" fill="#FFF7E5"/>
<path d="M220.414 374H-302.944C-323.05 374 -338.891 390.45 -338.891 410.556V457.469H256.969V410.556C256.969 390.45 240.519 374 220.414 374Z" fill="#FFF7E5"/>
<path d="M1672.22 374H1148.87C1128.76 374 1112.92 390.45 1112.92 410.556V457.469H1708.78V410.556C1708.78 390.45 1692.33 374 1672.22 374Z" fill="#FFF7E5"/>
<path d="M2398.13 374H1874.77C1854.66 374 1838.82 390.45 1838.82 410.556V457.469H2434.68V410.556C2434.68 390.45 2418.23 374 2398.13 374Z" fill="#FFF7E5"/>
<path d="M3124.03 374H2600.67C2580.57 374 2564.73 390.45 2564.73 410.556V457.469H3160.59V410.556C3160.59 390.45 3144.14 374 3124.03 374Z" fill="#FFF7E5"/>
<path d="M3849.94 374H3326.58C3306.47 374 3290.63 390.45 3290.63 410.556V457.469H3886.49V410.556C3886.49 390.45 3870.04 374 3849.94 374Z" fill="#FFF7E5"/>
<path d="M4575.84 374H4052.48C4032.38 374 4016.54 390.45 4016.54 410.556V457.469H4612.4V410.556C4612.4 390.45 4595.95 374 4575.84 374Z" fill="#FFF7E5"/>
<path d="M5301.75 374H4778.39C4758.28 374 4742.44 390.45 4742.44 410.556V457.469H5338.3V410.556C5338.3 390.45 5321.85 374 5301.75 374Z" fill="#FFF7E5"/>
<path d="M946.318 598H422.961C402.855 598 387.014 614.45 387.014 634.556V681.469H982.874V634.556C982.874 614.45 966.424 598 946.318 598Z" fill="#FFF7E5"/>
<path d="M220.414 598H-302.944C-323.05 598 -338.891 614.45 -338.891 634.556V681.469H256.969V634.556C256.969 614.45 240.519 598 220.414 598Z" fill="#FFF7E5"/>
<path d="M1672.22 598H1148.87C1128.76 598 1112.92 614.45 1112.92 634.556V681.469H1708.78V634.556C1708.78 614.45 1692.33 598 1672.22 598Z" fill="#FFF7E5"/>
<path d="M2398.13 598H1874.77C1854.66 598 1838.82 614.45 1838.82 634.556V681.469H2434.68V634.556C2434.68 614.45 2418.23 598 2398.13 598Z" fill="#FFF7E5"/>
<path d="M3124.03 598H2600.67C2580.57 598 2564.73 614.45 2564.73 634.556V681.469H3160.59V634.556C3160.59 614.45 3144.14 598 3124.03 598Z" fill="#FFF7E5"/>
<path d="M3849.94 598H3326.58C3306.47 598 3290.63 614.45 3290.63 634.556V681.469H3886.49V634.556C3886.49 614.45 3870.04 598 3849.94 598Z" fill="#FFF7E5"/>
<path d="M4575.84 598H4052.48C4032.38 598 4016.54 614.45 4016.54 634.556V681.469H4612.4V634.556C4612.4 614.45 4595.95 598 4575.84 598Z" fill="#FFF7E5"/>
<path d="M5301.75 598H4778.39C4758.28 598 4742.44 614.45 4742.44 634.556V681.469H5338.3V634.556C5338.3 614.45 5321.85 598 5301.75 598Z" fill="#FFF7E5"/>
<path d="M946.318 822H422.961C402.855 822 387.014 838.45 387.014 858.556V905.469H982.874V858.556C982.874 838.45 966.424 822 946.318 822Z" fill="#FFF7E5"/>
<path d="M220.414 822H-302.944C-323.05 822 -338.891 838.45 -338.891 858.556V905.469H256.969V858.556C256.969 838.45 240.519 822 220.414 822Z" fill="#FFF7E5"/>
<path d="M1672.22 822H1148.87C1128.76 822 1112.92 838.45 1112.92 858.556V905.469H1708.78V858.556C1708.78 838.45 1692.33 822 1672.22 822Z" fill="#FFF7E5"/>
<path d="M2398.13 822H1874.77C1854.66 822 1838.82 838.45 1838.82 858.556V905.469H2434.68V858.556C2434.68 838.45 2418.23 822 2398.13 822Z" fill="#FFF7E5"/>
<path d="M3124.03 822H2600.67C2580.57 822 2564.73 838.45 2564.73 858.556V905.469H3160.59V858.556C3160.59 838.45 3144.14 822 3124.03 822Z" fill="#FFF7E5"/>
<path d="M3849.94 822H3326.58C3306.47 822 3290.63 838.45 3290.63 858.556V905.469H3886.49V858.556C3886.49 838.45 3870.04 822 3849.94 822Z" fill="#FFF7E5"/>
<path d="M4575.84 822H4052.48C4032.38 822 4016.54 838.45 4016.54 858.556V905.469H4612.4V858.556C4612.4 838.45 4595.95 822 4575.84 822Z" fill="#FFF7E5"/>
<path d="M5301.75 822H4778.39C4758.28 822 4742.44 838.45 4742.44 858.556V905.469H5338.3V858.556C5338.3 838.45 5321.85 822 5301.75 822Z" fill="#FFF7E5"/>
<path d="M946.318 1046H422.961C402.855 1046 387.014 1062.45 387.014 1082.56V1129.47H982.874V1082.56C982.874 1062.45 966.424 1046 946.318 1046Z" fill="#FFF7E5"/>
<path d="M220.414 1046H-302.944C-323.05 1046 -338.891 1062.45 -338.891 1082.56V1129.47H256.969V1082.56C256.969 1062.45 240.519 1046 220.414 1046Z" fill="#FFF7E5"/>
<path d="M1672.22 1046H1148.87C1128.76 1046 1112.92 1062.45 1112.92 1082.56V1129.47H1708.78V1082.56C1708.78 1062.45 1692.33 1046 1672.22 1046Z" fill="#FFF7E5"/>
<path d="M2398.13 1046H1874.77C1854.66 1046 1838.82 1062.45 1838.82 1082.56V1129.47H2434.68V1082.56C2434.68 1062.45 2418.23 1046 2398.13 1046Z" fill="#FFF7E5"/>
<path d="M3124.03 1046H2600.67C2580.57 1046 2564.73 1062.45 2564.73 1082.56V1129.47H3160.59V1082.56C3160.59 1062.45 3144.14 1046 3124.03 1046Z" fill="#FFF7E5"/>
<path d="M3849.94 1046H3326.58C3306.47 1046 3290.63 1062.45 3290.63 1082.56V1129.47H3886.49V1082.56C3886.49 1062.45 3870.04 1046 3849.94 1046Z" fill="#FFF7E5"/>
<path d="M4575.84 1046H4052.48C4032.38 1046 4016.54 1062.45 4016.54 1082.56V1129.47H4612.4V1082.56C4612.4 1062.45 4595.95 1046 4575.84 1046Z" fill="#FFF7E5"/>
<path d="M5301.75 1046H4778.39C4758.28 1046 4742.44 1062.45 4742.44 1082.56V1129.47H5338.3V1082.56C5338.3 1062.45 5321.85 1046 5301.75 1046Z" fill="#FFF7E5"/>
<path d="M946.318 1270H422.961C402.855 1270 387.014 1286.45 387.014 1306.56V1353.47H982.874V1306.56C982.874 1286.45 966.424 1270 946.318 1270Z" fill="#FFF7E5"/>
<path d="M220.414 1270H-302.944C-323.05 1270 -338.891 1286.45 -338.891 1306.56V1353.47H256.969V1306.56C256.969 1286.45 240.519 1270 220.414 1270Z" fill="#FFF7E5"/>
<path d="M1672.22 1270H1148.87C1128.76 1270 1112.92 1286.45 1112.92 1306.56V1353.47H1708.78V1306.56C1708.78 1286.45 1692.33 1270 1672.22 1270Z" fill="#FFF7E5"/>
<path d="M2398.13 1270H1874.77C1854.66 1270 1838.82 1286.45 1838.82 1306.56V1353.47H2434.68V1306.56C2434.68 1286.45 2418.23 1270 2398.13 1270Z" fill="#FFF7E5"/>
<path d="M3124.03 1270H2600.67C2580.57 1270 2564.73 1286.45 2564.73 1306.56V1353.47H3160.59V1306.56C3160.59 1286.45 3144.14 1270 3124.03 1270Z" fill="#FFF7E5"/>
<path d="M3849.94 1270H3326.58C3306.47 1270 3290.63 1286.45 3290.63 1306.56V1353.47H3886.49V1306.56C3886.49 1286.45 3870.04 1270 3849.94 1270Z" fill="#FFF7E5"/>
<path d="M4575.84 1270H4052.48C4032.38 1270 4016.54 1286.45 4016.54 1306.56V1353.47H4612.4V1306.56C4612.4 1286.45 4595.95 1270 4575.84 1270Z" fill="#FFF7E5"/>
<path d="M5301.75 1270H4778.39C4758.28 1270 4742.44 1286.45 4742.44 1306.56V1353.47H5338.3V1306.56C5338.3 1286.45 5321.85 1270 5301.75 1270Z" fill="#FFF7E5"/>
<path d="M946.318 1494H422.961C402.855 1494 387.014 1510.45 387.014 1530.56V1577.47H982.874V1530.56C982.874 1510.45 966.424 1494 946.318 1494Z" fill="#FFF7E5"/>
<path d="M220.414 1494H-302.944C-323.05 1494 -338.891 1510.45 -338.891 1530.56V1577.47H256.969V1530.56C256.969 1510.45 240.519 1494 220.414 1494Z" fill="#FFF7E5"/>
<path d="M1672.22 1494H1148.87C1128.76 1494 1112.92 1510.45 1112.92 1530.56V1577.47H1708.78V1530.56C1708.78 1510.45 1692.33 1494 1672.22 1494Z" fill="#FFF7E5"/>
<path d="M2398.13 1494H1874.77C1854.66 1494 1838.82 1510.45 1838.82 1530.56V1577.47H2434.68V1530.56C2434.68 1510.45 2418.23 1494 2398.13 1494Z" fill="#FFF7E5"/>
<path d="M3124.03 1494H2600.67C2580.57 1494 2564.73 1510.45 2564.73 1530.56V1577.47H3160.59V1530.56C3160.59 1510.45 3144.14 1494 3124.03 1494Z" fill="#FFF7E5"/>
<path d="M3849.94 1494H3326.58C3306.47 1494 3290.63 1510.45 3290.63 1530.56V1577.47H3886.49V1530.56C3886.49 1510.45 3870.04 1494 3849.94 1494Z" fill="#FFF7E5"/>
<path d="M4575.84 1494H4052.48C4032.38 1494 4016.54 1510.45 4016.54 1530.56V1577.47H4612.4V1530.56C4612.4 1510.45 4595.95 1494 4575.84 1494Z" fill="#FFF7E5"/>
<path d="M5301.75 1494H4778.39C4758.28 1494 4742.44 1510.45 4742.44 1530.56V1577.47H5338.3V1530.56C5338.3 1510.45 5321.85 1494 5301.75 1494Z" fill="#FFF7E5"/>
<path d="M946.318 1718H422.961C402.855 1718 387.014 1734.45 387.014 1754.56V1801.47H982.874V1754.56C982.874 1734.45 966.424 1718 946.318 1718Z" fill="#FFF7E5"/>
<path d="M220.414 1718H-302.944C-323.05 1718 -338.891 1734.45 -338.891 1754.56V1801.47H256.969V1754.56C256.969 1734.45 240.519 1718 220.414 1718Z" fill="#FFF7E5"/>
<path d="M1672.22 1718H1148.87C1128.76 1718 1112.92 1734.45 1112.92 1754.56V1801.47H1708.78V1754.56C1708.78 1734.45 1692.33 1718 1672.22 1718Z" fill="#FFF7E5"/>
<path d="M2398.13 1718H1874.77C1854.66 1718 1838.82 1734.45 1838.82 1754.56V1801.47H2434.68V1754.56C2434.68 1734.45 2418.23 1718 2398.13 1718Z" fill="#FFF7E5"/>
<path d="M3124.03 1718H2600.67C2580.57 1718 2564.73 1734.45 2564.73 1754.56V1801.47H3160.59V1754.56C3160.59 1734.45 3144.14 1718 3124.03 1718Z" fill="#FFF7E5"/>
<path d="M3849.94 1718H3326.58C3306.47 1718 3290.63 1734.45 3290.63 1754.56V1801.47H3886.49V1754.56C3886.49 1734.45 3870.04 1718 3849.94 1718Z" fill="#FFF7E5"/>
<path d="M4575.84 1718H4052.48C4032.38 1718 4016.54 1734.45 4016.54 1754.56V1801.47H4612.4V1754.56C4612.4 1734.45 4595.95 1718 4575.84 1718Z" fill="#FFF7E5"/>
<path d="M5301.75 1718H4778.39C4758.28 1718 4742.44 1734.45 4742.44 1754.56V1801.47H5338.3V1754.56C5338.3 1734.45 5321.85 1718 5301.75 1718Z" fill="#FFF7E5"/>
<path d="M946.318 1942H422.961C402.855 1942 387.014 1958.45 387.014 1978.56V2025.47H982.874V1978.56C982.874 1958.45 966.424 1942 946.318 1942Z" fill="#FFF7E5"/>
<path d="M220.414 1942H-302.944C-323.05 1942 -338.891 1958.45 -338.891 1978.56V2025.47H256.969V1978.56C256.969 1958.45 240.519 1942 220.414 1942Z" fill="#FFF7E5"/>
<path d="M1672.22 1942H1148.87C1128.76 1942 1112.92 1958.45 1112.92 1978.56V2025.47H1708.78V1978.56C1708.78 1958.45 1692.33 1942 1672.22 1942Z" fill="#FFF7E5"/>
<path d="M2398.13 1942H1874.77C1854.66 1942 1838.82 1958.45 1838.82 1978.56V2025.47H2434.68V1978.56C2434.68 1958.45 2418.23 1942 2398.13 1942Z" fill="#FFF7E5"/>
<path d="M3124.03 1942H2600.67C2580.57 1942 2564.73 1958.45 2564.73 1978.56V2025.47H3160.59V1978.56C3160.59 1958.45 3144.14 1942 3124.03 1942Z" fill="#FFF7E5"/>
<path d="M3849.94 1942H3326.58C3306.47 1942 3290.63 1958.45 3290.63 1978.56V2025.47H3886.49V1978.56C3886.49 1958.45 3870.04 1942 3849.94 1942Z" fill="#FFF7E5"/>
<path d="M4575.84 1942H4052.48C4032.38 1942 4016.54 1958.45 4016.54 1978.56V2025.47H4612.4V1978.56C4612.4 1958.45 4595.95 1942 4575.84 1942Z" fill="#FFF7E5"/>
<path d="M5301.75 1942H4778.39C4758.28 1942 4742.44 1958.45 4742.44 1978.56V2025.47H5338.3V1978.56C5338.3 1958.45 5321.85 1942 5301.75 1942Z" fill="#FFF7E5"/>
<path d="M946.318 2166H422.961C402.855 2166 387.014 2182.45 387.014 2202.56V2249.47H982.874V2202.56C982.874 2182.45 966.424 2166 946.318 2166Z" fill="#FFF7E5"/>
<path d="M220.414 2166H-302.944C-323.05 2166 -338.891 2182.45 -338.891 2202.56V2249.47H256.969V2202.56C256.969 2182.45 240.519 2166 220.414 2166Z" fill="#FFF7E5"/>
<path d="M1672.22 2166H1148.87C1128.76 2166 1112.92 2182.45 1112.92 2202.56V2249.47H1708.78V2202.56C1708.78 2182.45 1692.33 2166 1672.22 2166Z" fill="#FFF7E5"/>
<path d="M2398.13 2166H1874.77C1854.66 2166 1838.82 2182.45 1838.82 2202.56V2249.47H2434.68V2202.56C2434.68 2182.45 2418.23 2166 2398.13 2166Z" fill="#FFF7E5"/>
<path d="M3124.03 2166H2600.67C2580.57 2166 2564.73 2182.45 2564.73 2202.56V2249.47H3160.59V2202.56C3160.59 2182.45 3144.14 2166 3124.03 2166Z" fill="#FFF7E5"/>
<path d="M3849.94 2166H3326.58C3306.47 2166 3290.63 2182.45 3290.63 2202.56V2249.47H3886.49V2202.56C3886.49 2182.45 3870.04 2166 3849.94 2166Z" fill="#FFF7E5"/>
<path d="M4575.84 2166H4052.48C4032.38 2166 4016.54 2182.45 4016.54 2202.56V2249.47H4612.4V2202.56C4612.4 2182.45 4595.95 2166 4575.84 2166Z" fill="#FFF7E5"/>
<path d="M5301.75 2166H4778.39C4758.28 2166 4742.44 2182.45 4742.44 2202.56V2249.47H5338.3V2202.56C5338.3 2182.45 5321.85 2166 5301.75 2166Z" fill="#FFF7E5"/>
<path d="M946.318 2390H422.961C402.855 2390 387.014 2406.45 387.014 2426.56V2473.47H982.874V2426.56C982.874 2406.45 966.424 2390 946.318 2390Z" fill="#FFF7E5"/>
<path d="M220.414 2390H-302.944C-323.05 2390 -338.891 2406.45 -338.891 2426.56V2473.47H256.969V2426.56C256.969 2406.45 240.519 2390 220.414 2390Z" fill="#FFF7E5"/>
<path d="M1672.22 2390H1148.87C1128.76 2390 1112.92 2406.45 1112.92 2426.56V2473.47H1708.78V2426.56C1708.78 2406.45 1692.33 2390 1672.22 2390Z" fill="#FFF7E5"/>
<path d="M2398.13 2390H1874.77C1854.66 2390 1838.82 2406.45 1838.82 2426.56V2473.47H2434.68V2426.56C2434.68 2406.45 2418.23 2390 2398.13 2390Z" fill="#FFF7E5"/>
<path d="M3124.03 2390H2600.67C2580.57 2390 2564.73 2406.45 2564.73 2426.56V2473.47H3160.59V2426.56C3160.59 2406.45 3144.14 2390 3124.03 2390Z" fill="#FFF7E5"/>
<path d="M3849.94 2390H3326.58C3306.47 2390 3290.63 2406.45 3290.63 2426.56V2473.47H3886.49V2426.56C3886.49 2406.45 3870.04 2390 3849.94 2390Z" fill="#FFF7E5"/>
<path d="M4575.84 2390H4052.48C4032.38 2390 4016.54 2406.45 4016.54 2426.56V2473.47H4612.4V2426.56C4612.4 2406.45 4595.95 2390 4575.84 2390Z" fill="#FFF7E5"/>
<path d="M5301.75 2390H4778.39C4758.28 2390 4742.44 2406.45 4742.44 2426.56V2473.47H5338.3V2426.56C5338.3 2406.45 5321.85 2390 5301.75 2390Z" fill="#FFF7E5"/>
<path d="M946.318 2614H422.961C402.855 2614 387.014 2630.45 387.014 2650.56V2697.47H982.874V2650.56C982.874 2630.45 966.424 2614 946.318 2614Z" fill="#FFF7E5"/>
<path d="M220.414 2614H-302.944C-323.05 2614 -338.891 2630.45 -338.891 2650.56V2697.47H256.969V2650.56C256.969 2630.45 240.519 2614 220.414 2614Z" fill="#FFF7E5"/>
<path d="M1672.22 2614H1148.87C1128.76 2614 1112.92 2630.45 1112.92 2650.56V2697.47H1708.78V2650.56C1708.78 2630.45 1692.33 2614 1672.22 2614Z" fill="#FFF7E5"/>
<path d="M2398.13 2614H1874.77C1854.66 2614 1838.82 2630.45 1838.82 2650.56V2697.47H2434.68V2650.56C2434.68 2630.45 2418.23 2614 2398.13 2614Z" fill="#FFF7E5"/>
<path d="M3124.03 2614H2600.67C2580.57 2614 2564.73 2630.45 2564.73 2650.56V2697.47H3160.59V2650.56C3160.59 2630.45 3144.14 2614 3124.03 2614Z" fill="#FFF7E5"/>
<path d="M3849.94 2614H3326.58C3306.47 2614 3290.63 2630.45 3290.63 2650.56V2697.47H3886.49V2650.56C3886.49 2630.45 3870.04 2614 3849.94 2614Z" fill="#FFF7E5"/>
<path d="M4575.84 2614H4052.48C4032.38 2614 4016.54 2630.45 4016.54 2650.56V2697.47H4612.4V2650.56C4612.4 2630.45 4595.95 2614 4575.84 2614Z" fill="#FFF7E5"/>
<path d="M5301.75 2614H4778.39C4758.28 2614 4742.44 2630.45 4742.44 2650.56V2697.47H5338.3V2650.56C5338.3 2630.45 5321.85 2614 5301.75 2614Z" fill="#FFF7E5"/>
<path d="M946.318 2838H422.961C402.855 2838 387.014 2854.45 387.014 2874.56V2921.47H982.874V2874.56C982.874 2854.45 966.424 2838 946.318 2838Z" fill="#FFF7E5"/>
<path d="M220.414 2838H-302.944C-323.05 2838 -338.891 2854.45 -338.891 2874.56V2921.47H256.969V2874.56C256.969 2854.45 240.519 2838 220.414 2838Z" fill="#FFF7E5"/>
<path d="M1672.22 2838H1148.87C1128.76 2838 1112.92 2854.45 1112.92 2874.56V2921.47H1708.78V2874.56C1708.78 2854.45 1692.33 2838 1672.22 2838Z" fill="#FFF7E5"/>
<path d="M2398.13 2838H1874.77C1854.66 2838 1838.82 2854.45 1838.82 2874.56V2921.47H2434.68V2874.56C2434.68 2854.45 2418.23 2838 2398.13 2838Z" fill="#FFF7E5"/>
<path d="M3124.03 2838H2600.67C2580.57 2838 2564.73 2854.45 2564.73 2874.56V2921.47H3160.59V2874.56C3160.59 2854.45 3144.14 2838 3124.03 2838Z" fill="#FFF7E5"/>
<path d="M3849.94 2838H3326.58C3306.47 2838 3290.63 2854.45 3290.63 2874.56V2921.47H3886.49V2874.56C3886.49 2854.45 3870.04 2838 3849.94 2838Z" fill="#FFF7E5"/>
<path d="M4575.84 2838H4052.48C4032.38 2838 4016.54 2854.45 4016.54 2874.56V2921.47H4612.4V2874.56C4612.4 2854.45 4595.95 2838 4575.84 2838Z" fill="#FFF7E5"/>
<path d="M5301.75 2838H4778.39C4758.28 2838 4742.44 2854.45 4742.44 2874.56V2921.47H5338.3V2874.56C5338.3 2854.45 5321.85 2838 5301.75 2838Z" fill="#FFF7E5"/>
<path d="M946.318 3062H422.961C402.855 3062 387.014 3078.45 387.014 3098.56V3145.47H982.874V3098.56C982.874 3078.45 966.424 3062 946.318 3062Z" fill="#FFF7E5"/>
<path d="M220.414 3062H-302.944C-323.05 3062 -338.891 3078.45 -338.891 3098.56V3145.47H256.969V3098.56C256.969 3078.45 240.519 3062 220.414 3062Z" fill="#FFF7E5"/>
<path d="M1672.22 3062H1148.87C1128.76 3062 1112.92 3078.45 1112.92 3098.56V3145.47H1708.78V3098.56C1708.78 3078.45 1692.33 3062 1672.22 3062Z" fill="#FFF7E5"/>
<path d="M2398.13 3062H1874.77C1854.66 3062 1838.82 3078.45 1838.82 3098.56V3145.47H2434.68V3098.56C2434.68 3078.45 2418.23 3062 2398.13 3062Z" fill="#FFF7E5"/>
<path d="M3124.03 3062H2600.67C2580.57 3062 2564.73 3078.45 2564.73 3098.56V3145.47H3160.59V3098.56C3160.59 3078.45 3144.14 3062 3124.03 3062Z" fill="#FFF7E5"/>
<path d="M3849.94 3062H3326.58C3306.47 3062 3290.63 3078.45 3290.63 3098.56V3145.47H3886.49V3098.56C3886.49 3078.45 3870.04 3062 3849.94 3062Z" fill="#FFF7E5"/>
<path d="M4575.84 3062H4052.48C4032.38 3062 4016.54 3078.45 4016.54 3098.56V3145.47H4612.4V3098.56C4612.4 3078.45 4595.95 3062 4575.84 3062Z" fill="#FFF7E5"/>
<path d="M5301.75 3062H4778.39C4758.28 3062 4742.44 3078.45 4742.44 3098.56V3145.47H5338.3V3098.56C5338.3 3078.45 5321.85 3062 5301.75 3062Z" fill="#FFF7E5"/>
<path d="M946.318 3286H422.961C402.855 3286 387.014 3302.45 387.014 3322.56V3369.47H982.874V3322.56C982.874 3302.45 966.424 3286 946.318 3286Z" fill="#FFF7E5"/>
<path d="M220.414 3286H-302.944C-323.05 3286 -338.891 3302.45 -338.891 3322.56V3369.47H256.969V3322.56C256.969 3302.45 240.519 3286 220.414 3286Z" fill="#FFF7E5"/>
<path d="M1672.22 3286H1148.87C1128.76 3286 1112.92 3302.45 1112.92 3322.56V3369.47H1708.78V3322.56C1708.78 3302.45 1692.33 3286 1672.22 3286Z" fill="#FFF7E5"/>
<path d="M2398.13 3286H1874.77C1854.66 3286 1838.82 3302.45 1838.82 3322.56V3369.47H2434.68V3322.56C2434.68 3302.45 2418.23 3286 2398.13 3286Z" fill="#FFF7E5"/>
<path d="M3124.03 3286H2600.67C2580.57 3286 2564.73 3302.45 2564.73 3322.56V3369.47H3160.59V3322.56C3160.59 3302.45 3144.14 3286 3124.03 3286Z" fill="#FFF7E5"/>
<path d="M3849.94 3286H3326.58C3306.47 3286 3290.63 3302.45 3290.63 3322.56V3369.47H3886.49V3322.56C3886.49 3302.45 3870.04 3286 3849.94 3286Z" fill="#FFF7E5"/>
<path d="M4575.84 3286H4052.48C4032.38 3286 4016.54 3302.45 4016.54 3322.56V3369.47H4612.4V3322.56C4612.4 3302.45 4595.95 3286 4575.84 3286Z" fill="#FFF7E5"/>
<path d="M5301.75 3286H4778.39C4758.28 3286 4742.44 3302.45 4742.44 3322.56V3369.47H5338.3V3322.56C5338.3 3302.45 5321.85 3286 5301.75 3286Z" fill="#FFF7E5"/>
<path d="M946.318 3510H422.961C402.855 3510 387.014 3526.45 387.014 3546.56V3593.47H982.874V3546.56C982.874 3526.45 966.424 3510 946.318 3510Z" fill="#FFF7E5"/>
<path d="M220.414 3510H-302.944C-323.05 3510 -338.891 3526.45 -338.891 3546.56V3593.47H256.969V3546.56C256.969 3526.45 240.519 3510 220.414 3510Z" fill="#FFF7E5"/>
<path d="M1672.22 3510H1148.87C1128.76 3510 1112.92 3526.45 1112.92 3546.56V3593.47H1708.78V3546.56C1708.78 3526.45 1692.33 3510 1672.22 3510Z" fill="#FFF7E5"/>
<path d="M2398.13 3510H1874.77C1854.66 3510 1838.82 3526.45 1838.82 3546.56V3593.47H2434.68V3546.56C2434.68 3526.45 2418.23 3510 2398.13 3510Z" fill="#FFF7E5"/>
<path d="M3124.03 3510H2600.67C2580.57 3510 2564.73 3526.45 2564.73 3546.56V3593.47H3160.59V3546.56C3160.59 3526.45 3144.14 3510 3124.03 3510Z" fill="#FFF7E5"/>
<path d="M3849.94 3510H3326.58C3306.47 3510 3290.63 3526.45 3290.63 3546.56V3593.47H3886.49V3546.56C3886.49 3526.45 3870.04 3510 3849.94 3510Z" fill="#FFF7E5"/>
<path d="M4575.84 3510H4052.48C4032.38 3510 4016.54 3526.45 4016.54 3546.56V3593.47H4612.4V3546.56C4612.4 3526.45 4595.95 3510 4575.84 3510Z" fill="#FFF7E5"/>
<path d="M5301.75 3510H4778.39C4758.28 3510 4742.44 3526.45 4742.44 3546.56V3593.47H5338.3V3546.56C5338.3 3526.45 5321.85 3510 5301.75 3510Z" fill="#FFF7E5"/>
<path d="M946.318 3734H422.961C402.855 3734 387.014 3750.45 387.014 3770.56V3817.47H982.874V3770.56C982.874 3750.45 966.424 3734 946.318 3734Z" fill="#FFF7E5"/>
<path d="M220.414 3734H-302.944C-323.05 3734 -338.891 3750.45 -338.891 3770.56V3817.47H256.969V3770.56C256.969 3750.45 240.519 3734 220.414 3734Z" fill="#FFF7E5"/>
<path d="M1672.22 3734H1148.87C1128.76 3734 1112.92 3750.45 1112.92 3770.56V3817.47H1708.78V3770.56C1708.78 3750.45 1692.33 3734 1672.22 3734Z" fill="#FFF7E5"/>
<path d="M2398.13 3734H1874.77C1854.66 3734 1838.82 3750.45 1838.82 3770.56V3817.47H2434.68V3770.56C2434.68 3750.45 2418.23 3734 2398.13 3734Z" fill="#FFF7E5"/>
<path d="M3124.03 3734H2600.67C2580.57 3734 2564.73 3750.45 2564.73 3770.56V3817.47H3160.59V3770.56C3160.59 3750.45 3144.14 3734 3124.03 3734Z" fill="#FFF7E5"/>
<path d="M3849.94 3734H3326.58C3306.47 3734 3290.63 3750.45 3290.63 3770.56V3817.47H3886.49V3770.56C3886.49 3750.45 3870.04 3734 3849.94 3734Z" fill="#FFF7E5"/>
<path d="M4575.84 3734H4052.48C4032.38 3734 4016.54 3750.45 4016.54 3770.56V3817.47H4612.4V3770.56C4612.4 3750.45 4595.95 3734 4575.84 3734Z" fill="#FFF7E5"/>
<path d="M5301.75 3734H4778.39C4758.28 3734 4742.44 3750.45 4742.44 3770.56V3817.47H5338.3V3770.56C5338.3 3750.45 5321.85 3734 5301.75 3734Z" fill="#FFF7E5"/>
<path d="M946.318 3958H422.961C402.855 3958 387.014 3974.45 387.014 3994.56V4041.47H982.874V3994.56C982.874 3974.45 966.424 3958 946.318 3958Z" fill="#FFF7E5"/>
<path d="M220.414 3958H-302.944C-323.05 3958 -338.891 3974.45 -338.891 3994.56V4041.47H256.969V3994.56C256.969 3974.45 240.519 3958 220.414 3958Z" fill="#FFF7E5"/>
<path d="M1672.22 3958H1148.87C1128.76 3958 1112.92 3974.45 1112.92 3994.56V4041.47H1708.78V3994.56C1708.78 3974.45 1692.33 3958 1672.22 3958Z" fill="#FFF7E5"/>
<path d="M2398.13 3958H1874.77C1854.66 3958 1838.82 3974.45 1838.82 3994.56V4041.47H2434.68V3994.56C2434.68 3974.45 2418.23 3958 2398.13 3958Z" fill="#FFF7E5"/>
<path d="M3124.03 3958H2600.67C2580.57 3958 2564.73 3974.45 2564.73 3994.56V4041.47H3160.59V3994.56C3160.59 3974.45 3144.14 3958 3124.03 3958Z" fill="#FFF7E5"/>
<path d="M3849.94 3958H3326.58C3306.47 3958 3290.63 3974.45 3290.63 3994.56V4041.47H3886.49V3994.56C3886.49 3974.45 3870.04 3958 3849.94 3958Z" fill="#FFF7E5"/>
<path d="M4575.84 3958H4052.48C4032.38 3958 4016.54 3974.45 4016.54 3994.56V4041.47H4612.4V3994.56C4612.4 3974.45 4595.95 3958 4575.84 3958Z" fill="#FFF7E5"/>
<path d="M5301.75 3958H4778.39C4758.28 3958 4742.44 3974.45 4742.44 3994.56V4041.47H5338.3V3994.56C5338.3 3974.45 5321.85 3958 5301.75 3958Z" fill="#FFF7E5"/>
<path d="M946.318 4182H422.961C402.855 4182 387.014 4198.45 387.014 4218.56V4265.47H982.874V4218.56C982.874 4198.45 966.424 4182 946.318 4182Z" fill="#FFF7E5"/>
<path d="M220.414 4182H-302.944C-323.05 4182 -338.891 4198.45 -338.891 4218.56V4265.47H256.969V4218.56C256.969 4198.45 240.519 4182 220.414 4182Z" fill="#FFF7E5"/>
<path d="M1672.22 4182H1148.87C1128.76 4182 1112.92 4198.45 1112.92 4218.56V4265.47H1708.78V4218.56C1708.78 4198.45 1692.33 4182 1672.22 4182Z" fill="#FFF7E5"/>
<path d="M2398.13 4182H1874.77C1854.66 4182 1838.82 4198.45 1838.82 4218.56V4265.47H2434.68V4218.56C2434.68 4198.45 2418.23 4182 2398.13 4182Z" fill="#FFF7E5"/>
<path d="M3124.03 4182H2600.67C2580.57 4182 2564.73 4198.45 2564.73 4218.56V4265.47H3160.59V4218.56C3160.59 4198.45 3144.14 4182 3124.03 4182Z" fill="#FFF7E5"/>
<path d="M3849.94 4182H3326.58C3306.47 4182 3290.63 4198.45 3290.63 4218.56V4265.47H3886.49V4218.56C3886.49 4198.45 3870.04 4182 3849.94 4182Z" fill="#FFF7E5"/>
<path d="M4575.84 4182H4052.48C4032.38 4182 4016.54 4198.45 4016.54 4218.56V4265.47H4612.4V4218.56C4612.4 4198.45 4595.95 4182 4575.84 4182Z" fill="#FFF7E5"/>
<path d="M5301.75 4182H4778.39C4758.28 4182 4742.44 4198.45 4742.44 4218.56V4265.47H5338.3V4218.56C5338.3 4198.45 5321.85 4182 5301.75 4182Z" fill="#FFF7E5"/>
<path d="M946.318 4406H422.961C402.855 4406 387.014 4422.45 387.014 4442.56V4489.47H982.874V4442.56C982.874 4422.45 966.424 4406 946.318 4406Z" fill="#FFF7E5"/>
<path d="M220.414 4406H-302.944C-323.05 4406 -338.891 4422.45 -338.891 4442.56V4489.47H256.969V4442.56C256.969 4422.45 240.519 4406 220.414 4406Z" fill="#FFF7E5"/>
<path d="M1672.22 4406H1148.87C1128.76 4406 1112.92 4422.45 1112.92 4442.56V4489.47H1708.78V4442.56C1708.78 4422.45 1692.33 4406 1672.22 4406Z" fill="#FFF7E5"/>
<path d="M2398.13 4406H1874.77C1854.66 4406 1838.82 4422.45 1838.82 4442.56V4489.47H2434.68V4442.56C2434.68 4422.45 2418.23 4406 2398.13 4406Z" fill="#FFF7E5"/>
<path d="M3124.03 4406H2600.67C2580.57 4406 2564.73 4422.45 2564.73 4442.56V4489.47H3160.59V4442.56C3160.59 4422.45 3144.14 4406 3124.03 4406Z" fill="#FFF7E5"/>
<path d="M3849.94 4406H3326.58C3306.47 4406 3290.63 4422.45 3290.63 4442.56V4489.47H3886.49V4442.56C3886.49 4422.45 3870.04 4406 3849.94 4406Z" fill="#FFF7E5"/>
<path d="M4575.84 4406H4052.48C4032.38 4406 4016.54 4422.45 4016.54 4442.56V4489.47H4612.4V4442.56C4612.4 4422.45 4595.95 4406 4575.84 4406Z" fill="#FFF7E5"/>
<path d="M5301.75 4406H4778.39C4758.28 4406 4742.44 4422.45 4742.44 4442.56V4489.47H5338.3V4442.56C5338.3 4422.45 5321.85 4406 5301.75 4406Z" fill="#FFF7E5"/>
<path d="M946.318 4630H422.961C402.855 4630 387.014 4646.45 387.014 4666.56V4713.47H982.874V4666.56C982.874 4646.45 966.424 4630 946.318 4630Z" fill="#FFF7E5"/>
<path d="M220.414 4630H-302.944C-323.05 4630 -338.891 4646.45 -338.891 4666.56V4713.47H256.969V4666.56C256.969 4646.45 240.519 4630 220.414 4630Z" fill="#FFF7E5"/>
<path d="M1672.22 4630H1148.87C1128.76 4630 1112.92 4646.45 1112.92 4666.56V4713.47H1708.78V4666.56C1708.78 4646.45 1692.33 4630 1672.22 4630Z" fill="#FFF7E5"/>
<path d="M2398.13 4630H1874.77C1854.66 4630 1838.82 4646.45 1838.82 4666.56V4713.47H2434.68V4666.56C2434.68 4646.45 2418.23 4630 2398.13 4630Z" fill="#FFF7E5"/>
<path d="M3124.03 4630H2600.67C2580.57 4630 2564.73 4646.45 2564.73 4666.56V4713.47H3160.59V4666.56C3160.59 4646.45 3144.14 4630 3124.03 4630Z" fill="#FFF7E5"/>
<path d="M3849.94 4630H3326.58C3306.47 4630 3290.63 4646.45 3290.63 4666.56V4713.47H3886.49V4666.56C3886.49 4646.45 3870.04 4630 3849.94 4630Z" fill="#FFF7E5"/>
<path d="M4575.84 4630H4052.48C4032.38 4630 4016.54 4646.45 4016.54 4666.56V4713.47H4612.4V4666.56C4612.4 4646.45 4595.95 4630 4575.84 4630Z" fill="#FFF7E5"/>
<path d="M5301.75 4630H4778.39C4758.28 4630 4742.44 4646.45 4742.44 4666.56V4713.47H5338.3V4666.56C5338.3 4646.45 5321.85 4630 5301.75 4630Z" fill="#FFF7E5"/>
<path d="M946.318 4854H422.961C402.855 4854 387.014 4870.45 387.014 4890.56V4937.47H982.874V4890.56C982.874 4870.45 966.424 4854 946.318 4854Z" fill="#FFF7E5"/>
<path d="M220.414 4854H-302.944C-323.05 4854 -338.891 4870.45 -338.891 4890.56V4937.47H256.969V4890.56C256.969 4870.45 240.519 4854 220.414 4854Z" fill="#FFF7E5"/>
<path d="M1672.22 4854H1148.87C1128.76 4854 1112.92 4870.45 1112.92 4890.56V4937.47H1708.78V4890.56C1708.78 4870.45 1692.33 4854 1672.22 4854Z" fill="#FFF7E5"/>
<path d="M2398.13 4854H1874.77C1854.66 4854 1838.82 4870.45 1838.82 4890.56V4937.47H2434.68V4890.56C2434.68 4870.45 2418.23 4854 2398.13 4854Z" fill="#FFF7E5"/>
<path d="M3124.03 4854H2600.67C2580.57 4854 2564.73 4870.45 2564.73 4890.56V4937.47H3160.59V4890.56C3160.59 4870.45 3144.14 4854 3124.03 4854Z" fill="#FFF7E5"/>
<path d="M3849.94 4854H3326.58C3306.47 4854 3290.63 4870.45 3290.63 4890.56V4937.47H3886.49V4890.56C3886.49 4870.45 3870.04 4854 3849.94 4854Z" fill="#FFF7E5"/>
<path d="M4575.84 4854H4052.48C4032.38 4854 4016.54 4870.45 4016.54 4890.56V4937.47H4612.4V4890.56C4612.4 4870.45 4595.95 4854 4575.84 4854Z" fill="#FFF7E5"/>
<path d="M5301.75 4854H4778.39C4758.28 4854 4742.44 4870.45 4742.44 4890.56V4937.47H5338.3V4890.56C5338.3 4870.45 5321.85 4854 5301.75 4854Z" fill="#FFF7E5"/>
<path d="M587.317 261.764H63.9597C43.854 261.764 28.013 278.215 28.013 298.32V345.234H623.873V298.32C623.873 278.215 607.423 261.764 587.317 261.764Z" fill="#FFF7E5"/>
<path d="M1313.22 261.764H789.864C769.759 261.764 753.918 278.215 753.918 298.32V345.234H1349.78V298.32C1349.78 278.215 1333.33 261.764 1313.22 261.764Z" fill="#FFF7E5"/>
<path d="M2039.13 261.764H1515.77C1495.66 261.764 1479.82 278.215 1479.82 298.32V345.234H2075.68V298.32C2075.68 278.215 2059.23 261.764 2039.13 261.764Z" fill="#FFF7E5"/>
<path d="M2765.03 261.764H2241.67C2221.57 261.764 2205.73 278.215 2205.73 298.32V345.234H2801.59V298.32C2801.59 278.215 2785.14 261.764 2765.03 261.764Z" fill="#FFF7E5"/>
<path d="M3490.94 261.764H2967.58C2947.47 261.764 2931.63 278.215 2931.63 298.32V345.234H3527.49V298.32C3527.49 278.215 3511.04 261.764 3490.94 261.764Z" fill="#FFF7E5"/>
<path d="M4216.84 261.764H3693.48C3673.38 261.764 3657.54 278.215 3657.54 298.32V345.234H4253.4V298.32C4253.4 278.215 4236.95 261.764 4216.84 261.764Z" fill="#FFF7E5"/>
<path d="M4942.75 261.764H4419.39C4399.28 261.764 4383.44 278.215 4383.44 298.32V345.234H4979.3V298.32C4979.3 278.215 4962.85 261.764 4942.75 261.764Z" fill="#FFF7E5"/>
<path d="M587.317 485.764H63.9597C43.854 485.764 28.013 502.215 28.013 522.32V569.234H623.873V522.32C623.873 502.215 607.423 485.764 587.317 485.764Z" fill="#FFF7E5"/>
<path d="M1313.22 485.764H789.864C769.759 485.764 753.918 502.215 753.918 522.32V569.234H1349.78V522.32C1349.78 502.215 1333.33 485.764 1313.22 485.764Z" fill="#FFF7E5"/>
<path d="M2039.13 485.764H1515.77C1495.66 485.764 1479.82 502.215 1479.82 522.32V569.234H2075.68V522.32C2075.68 502.215 2059.23 485.764 2039.13 485.764Z" fill="#FFF7E5"/>
<path d="M2765.03 485.764H2241.67C2221.57 485.764 2205.73 502.215 2205.73 522.32V569.234H2801.59V522.32C2801.59 502.215 2785.14 485.764 2765.03 485.764Z" fill="#FFF7E5"/>
<path d="M3490.94 485.764H2967.58C2947.47 485.764 2931.63 502.215 2931.63 522.32V569.234H3527.49V522.32C3527.49 502.215 3511.04 485.764 3490.94 485.764Z" fill="#FFF7E5"/>
<path d="M4216.84 485.764H3693.48C3673.38 485.764 3657.54 502.215 3657.54 522.32V569.234H4253.4V522.32C4253.4 502.215 4236.95 485.764 4216.84 485.764Z" fill="#FFF7E5"/>
<path d="M4942.75 485.764H4419.39C4399.28 485.764 4383.44 502.215 4383.44 522.32V569.234H4979.3V522.32C4979.3 502.215 4962.85 485.764 4942.75 485.764Z" fill="#FFF7E5"/>
<path d="M587.317 709.764H63.9597C43.854 709.764 28.013 726.215 28.013 746.32V793.234H623.873V746.32C623.873 726.215 607.423 709.764 587.317 709.764Z" fill="#FFF7E5"/>
<path d="M1313.22 709.764H789.864C769.759 709.764 753.918 726.215 753.918 746.32V793.234H1349.78V746.32C1349.78 726.215 1333.33 709.764 1313.22 709.764Z" fill="#FFF7E5"/>
<path d="M2039.13 709.764H1515.77C1495.66 709.764 1479.82 726.215 1479.82 746.32V793.234H2075.68V746.32C2075.68 726.215 2059.23 709.764 2039.13 709.764Z" fill="#FFF7E5"/>
<path d="M2765.03 709.764H2241.67C2221.57 709.764 2205.73 726.215 2205.73 746.32V793.234H2801.59V746.32C2801.59 726.215 2785.14 709.764 2765.03 709.764Z" fill="#FFF7E5"/>
<path d="M3490.94 709.764H2967.58C2947.47 709.764 2931.63 726.215 2931.63 746.32V793.234H3527.49V746.32C3527.49 726.215 3511.04 709.764 3490.94 709.764Z" fill="#FFF7E5"/>
<path d="M4216.84 709.764H3693.48C3673.38 709.764 3657.54 726.215 3657.54 746.32V793.234H4253.4V746.32C4253.4 726.215 4236.95 709.764 4216.84 709.764Z" fill="#FFF7E5"/>
<path d="M4942.75 709.764H4419.39C4399.28 709.764 4383.44 726.215 4383.44 746.32V793.234H4979.3V746.32C4979.3 726.215 4962.85 709.764 4942.75 709.764Z" fill="#FFF7E5"/>
<path d="M587.317 933.764H63.9597C43.854 933.764 28.013 950.215 28.013 970.32V1017.23H623.873V970.32C623.873 950.215 607.423 933.764 587.317 933.764Z" fill="#FFF7E5"/>
<path d="M1313.22 933.764H789.864C769.759 933.764 753.918 950.215 753.918 970.32V1017.23H1349.78V970.32C1349.78 950.215 1333.33 933.764 1313.22 933.764Z" fill="#FFF7E5"/>
<path d="M2039.13 933.764H1515.77C1495.66 933.764 1479.82 950.215 1479.82 970.32V1017.23H2075.68V970.32C2075.68 950.215 2059.23 933.764 2039.13 933.764Z" fill="#FFF7E5"/>
<path d="M2765.03 933.764H2241.67C2221.57 933.764 2205.73 950.215 2205.73 970.32V1017.23H2801.59V970.32C2801.59 950.215 2785.14 933.764 2765.03 933.764Z" fill="#FFF7E5"/>
<path d="M3490.94 933.764H2967.58C2947.47 933.764 2931.63 950.215 2931.63 970.32V1017.23H3527.49V970.32C3527.49 950.215 3511.04 933.764 3490.94 933.764Z" fill="#FFF7E5"/>
<path d="M4216.84 933.764H3693.48C3673.38 933.764 3657.54 950.215 3657.54 970.32V1017.23H4253.4V970.32C4253.4 950.215 4236.95 933.764 4216.84 933.764Z" fill="#FFF7E5"/>
<path d="M4942.75 933.764H4419.39C4399.28 933.764 4383.44 950.215 4383.44 970.32V1017.23H4979.3V970.32C4979.3 950.215 4962.85 933.764 4942.75 933.764Z" fill="#FFF7E5"/>
<path d="M587.317 1157.76H63.9597C43.854 1157.76 28.013 1174.21 28.013 1194.32V1241.23H623.873V1194.32C623.873 1174.21 607.423 1157.76 587.317 1157.76Z" fill="#FFF7E5"/>
<path d="M1313.22 1157.76H789.864C769.759 1157.76 753.918 1174.21 753.918 1194.32V1241.23H1349.78V1194.32C1349.78 1174.21 1333.33 1157.76 1313.22 1157.76Z" fill="#FFF7E5"/>
<path d="M2039.13 1157.76H1515.77C1495.66 1157.76 1479.82 1174.21 1479.82 1194.32V1241.23H2075.68V1194.32C2075.68 1174.21 2059.23 1157.76 2039.13 1157.76Z" fill="#FFF7E5"/>
<path d="M2765.03 1157.76H2241.67C2221.57 1157.76 2205.73 1174.21 2205.73 1194.32V1241.23H2801.59V1194.32C2801.59 1174.21 2785.14 1157.76 2765.03 1157.76Z" fill="#FFF7E5"/>
<path d="M3490.94 1157.76H2967.58C2947.47 1157.76 2931.63 1174.21 2931.63 1194.32V1241.23H3527.49V1194.32C3527.49 1174.21 3511.04 1157.76 3490.94 1157.76Z" fill="#FFF7E5"/>
<path d="M4216.84 1157.76H3693.48C3673.38 1157.76 3657.54 1174.21 3657.54 1194.32V1241.23H4253.4V1194.32C4253.4 1174.21 4236.95 1157.76 4216.84 1157.76Z" fill="#FFF7E5"/>
<path d="M4942.75 1157.76H4419.39C4399.28 1157.76 4383.44 1174.21 4383.44 1194.32V1241.23H4979.3V1194.32C4979.3 1174.21 4962.85 1157.76 4942.75 1157.76Z" fill="#FFF7E5"/>
<path d="M587.317 1381.76H63.9597C43.854 1381.76 28.013 1398.21 28.013 1418.32V1465.23H623.873V1418.32C623.873 1398.21 607.423 1381.76 587.317 1381.76Z" fill="#FFF7E5"/>
<path d="M1313.22 1381.76H789.864C769.759 1381.76 753.918 1398.21 753.918 1418.32V1465.23H1349.78V1418.32C1349.78 1398.21 1333.33 1381.76 1313.22 1381.76Z" fill="#FFF7E5"/>
<path d="M2039.13 1381.76H1515.77C1495.66 1381.76 1479.82 1398.21 1479.82 1418.32V1465.23H2075.68V1418.32C2075.68 1398.21 2059.23 1381.76 2039.13 1381.76Z" fill="#FFF7E5"/>
<path d="M2765.03 1381.76H2241.67C2221.57 1381.76 2205.73 1398.21 2205.73 1418.32V1465.23H2801.59V1418.32C2801.59 1398.21 2785.14 1381.76 2765.03 1381.76Z" fill="#FFF7E5"/>
<path d="M3490.94 1381.76H2967.58C2947.47 1381.76 2931.63 1398.21 2931.63 1418.32V1465.23H3527.49V1418.32C3527.49 1398.21 3511.04 1381.76 3490.94 1381.76Z" fill="#FFF7E5"/>
<path d="M4216.84 1381.76H3693.48C3673.38 1381.76 3657.54 1398.21 3657.54 1418.32V1465.23H4253.4V1418.32C4253.4 1398.21 4236.95 1381.76 4216.84 1381.76Z" fill="#FFF7E5"/>
<path d="M4942.75 1381.76H4419.39C4399.28 1381.76 4383.44 1398.21 4383.44 1418.32V1465.23H4979.3V1418.32C4979.3 1398.21 4962.85 1381.76 4942.75 1381.76Z" fill="#FFF7E5"/>
<path d="M587.317 1605.76H63.9597C43.854 1605.76 28.013 1622.21 28.013 1642.32V1689.23H623.873V1642.32C623.873 1622.21 607.423 1605.76 587.317 1605.76Z" fill="#FFF7E5"/>
<path d="M1313.22 1605.76H789.864C769.759 1605.76 753.918 1622.21 753.918 1642.32V1689.23H1349.78V1642.32C1349.78 1622.21 1333.33 1605.76 1313.22 1605.76Z" fill="#FFF7E5"/>
<path d="M2039.13 1605.76H1515.77C1495.66 1605.76 1479.82 1622.21 1479.82 1642.32V1689.23H2075.68V1642.32C2075.68 1622.21 2059.23 1605.76 2039.13 1605.76Z" fill="#FFF7E5"/>
<path d="M2765.03 1605.76H2241.67C2221.57 1605.76 2205.73 1622.21 2205.73 1642.32V1689.23H2801.59V1642.32C2801.59 1622.21 2785.14 1605.76 2765.03 1605.76Z" fill="#FFF7E5"/>
<path d="M3490.94 1605.76H2967.58C2947.47 1605.76 2931.63 1622.21 2931.63 1642.32V1689.23H3527.49V1642.32C3527.49 1622.21 3511.04 1605.76 3490.94 1605.76Z" fill="#FFF7E5"/>
<path d="M4216.84 1605.76H3693.48C3673.38 1605.76 3657.54 1622.21 3657.54 1642.32V1689.23H4253.4V1642.32C4253.4 1622.21 4236.95 1605.76 4216.84 1605.76Z" fill="#FFF7E5"/>
<path d="M4942.75 1605.76H4419.39C4399.28 1605.76 4383.44 1622.21 4383.44 1642.32V1689.23H4979.3V1642.32C4979.3 1622.21 4962.85 1605.76 4942.75 1605.76Z" fill="#FFF7E5"/>
<path d="M587.317 1829.76H63.9597C43.854 1829.76 28.013 1846.21 28.013 1866.32V1913.23H623.873V1866.32C623.873 1846.21 607.423 1829.76 587.317 1829.76Z" fill="#FFF7E5"/>
<path d="M1313.22 1829.76H789.864C769.759 1829.76 753.918 1846.21 753.918 1866.32V1913.23H1349.78V1866.32C1349.78 1846.21 1333.33 1829.76 1313.22 1829.76Z" fill="#FFF7E5"/>
<path d="M2039.13 1829.76H1515.77C1495.66 1829.76 1479.82 1846.21 1479.82 1866.32V1913.23H2075.68V1866.32C2075.68 1846.21 2059.23 1829.76 2039.13 1829.76Z" fill="#FFF7E5"/>
<path d="M2765.03 1829.76H2241.67C2221.57 1829.76 2205.73 1846.21 2205.73 1866.32V1913.23H2801.59V1866.32C2801.59 1846.21 2785.14 1829.76 2765.03 1829.76Z" fill="#FFF7E5"/>
<path d="M3490.94 1829.76H2967.58C2947.47 1829.76 2931.63 1846.21 2931.63 1866.32V1913.23H3527.49V1866.32C3527.49 1846.21 3511.04 1829.76 3490.94 1829.76Z" fill="#FFF7E5"/>
<path d="M4216.84 1829.76H3693.48C3673.38 1829.76 3657.54 1846.21 3657.54 1866.32V1913.23H4253.4V1866.32C4253.4 1846.21 4236.95 1829.76 4216.84 1829.76Z" fill="#FFF7E5"/>
<path d="M4942.75 1829.76H4419.39C4399.28 1829.76 4383.44 1846.21 4383.44 1866.32V1913.23H4979.3V1866.32C4979.3 1846.21 4962.85 1829.76 4942.75 1829.76Z" fill="#FFF7E5"/>
<path d="M587.317 2053.76H63.9597C43.854 2053.76 28.013 2070.21 28.013 2090.32V2137.23H623.873V2090.32C623.873 2070.21 607.423 2053.76 587.317 2053.76Z" fill="#FFF7E5"/>
<path d="M1313.22 2053.76H789.864C769.759 2053.76 753.918 2070.21 753.918 2090.32V2137.23H1349.78V2090.32C1349.78 2070.21 1333.33 2053.76 1313.22 2053.76Z" fill="#FFF7E5"/>
<path d="M2039.13 2053.76H1515.77C1495.66 2053.76 1479.82 2070.21 1479.82 2090.32V2137.23H2075.68V2090.32C2075.68 2070.21 2059.23 2053.76 2039.13 2053.76Z" fill="#FFF7E5"/>
<path d="M2765.03 2053.76H2241.67C2221.57 2053.76 2205.73 2070.21 2205.73 2090.32V2137.23H2801.59V2090.32C2801.59 2070.21 2785.14 2053.76 2765.03 2053.76Z" fill="#FFF7E5"/>
<path d="M3490.94 2053.76H2967.58C2947.47 2053.76 2931.63 2070.21 2931.63 2090.32V2137.23H3527.49V2090.32C3527.49 2070.21 3511.04 2053.76 3490.94 2053.76Z" fill="#FFF7E5"/>
<path d="M4216.84 2053.76H3693.48C3673.38 2053.76 3657.54 2070.21 3657.54 2090.32V2137.23H4253.4V2090.32C4253.4 2070.21 4236.95 2053.76 4216.84 2053.76Z" fill="#FFF7E5"/>
<path d="M4942.75 2053.76H4419.39C4399.28 2053.76 4383.44 2070.21 4383.44 2090.32V2137.23H4979.3V2090.32C4979.3 2070.21 4962.85 2053.76 4942.75 2053.76Z" fill="#FFF7E5"/>
<path d="M587.317 2277.76H63.9597C43.854 2277.76 28.013 2294.21 28.013 2314.32V2361.23H623.873V2314.32C623.873 2294.21 607.423 2277.76 587.317 2277.76Z" fill="#FFF7E5"/>
<path d="M1313.22 2277.76H789.864C769.759 2277.76 753.918 2294.21 753.918 2314.32V2361.23H1349.78V2314.32C1349.78 2294.21 1333.33 2277.76 1313.22 2277.76Z" fill="#FFF7E5"/>
<path d="M2039.13 2277.76H1515.77C1495.66 2277.76 1479.82 2294.21 1479.82 2314.32V2361.23H2075.68V2314.32C2075.68 2294.21 2059.23 2277.76 2039.13 2277.76Z" fill="#FFF7E5"/>
<path d="M2765.03 2277.76H2241.67C2221.57 2277.76 2205.73 2294.21 2205.73 2314.32V2361.23H2801.59V2314.32C2801.59 2294.21 2785.14 2277.76 2765.03 2277.76Z" fill="#FFF7E5"/>
<path d="M3490.94 2277.76H2967.58C2947.47 2277.76 2931.63 2294.21 2931.63 2314.32V2361.23H3527.49V2314.32C3527.49 2294.21 3511.04 2277.76 3490.94 2277.76Z" fill="#FFF7E5"/>
<path d="M4216.84 2277.76H3693.48C3673.38 2277.76 3657.54 2294.21 3657.54 2314.32V2361.23H4253.4V2314.32C4253.4 2294.21 4236.95 2277.76 4216.84 2277.76Z" fill="#FFF7E5"/>
<path d="M4942.75 2277.76H4419.39C4399.28 2277.76 4383.44 2294.21 4383.44 2314.32V2361.23H4979.3V2314.32C4979.3 2294.21 4962.85 2277.76 4942.75 2277.76Z" fill="#FFF7E5"/>
<path d="M587.317 2501.76H63.9597C43.854 2501.76 28.013 2518.21 28.013 2538.32V2585.23H623.873V2538.32C623.873 2518.21 607.423 2501.76 587.317 2501.76Z" fill="#FFF7E5"/>
<path d="M1313.22 2501.76H789.864C769.759 2501.76 753.918 2518.21 753.918 2538.32V2585.23H1349.78V2538.32C1349.78 2518.21 1333.33 2501.76 1313.22 2501.76Z" fill="#FFF7E5"/>
<path d="M2039.13 2501.76H1515.77C1495.66 2501.76 1479.82 2518.21 1479.82 2538.32V2585.23H2075.68V2538.32C2075.68 2518.21 2059.23 2501.76 2039.13 2501.76Z" fill="#FFF7E5"/>
<path d="M2765.03 2501.76H2241.67C2221.57 2501.76 2205.73 2518.21 2205.73 2538.32V2585.23H2801.59V2538.32C2801.59 2518.21 2785.14 2501.76 2765.03 2501.76Z" fill="#FFF7E5"/>
<path d="M3490.94 2501.76H2967.58C2947.47 2501.76 2931.63 2518.21 2931.63 2538.32V2585.23H3527.49V2538.32C3527.49 2518.21 3511.04 2501.76 3490.94 2501.76Z" fill="#FFF7E5"/>
<path d="M4216.84 2501.76H3693.48C3673.38 2501.76 3657.54 2518.21 3657.54 2538.32V2585.23H4253.4V2538.32C4253.4 2518.21 4236.95 2501.76 4216.84 2501.76Z" fill="#FFF7E5"/>
<path d="M4942.75 2501.76H4419.39C4399.28 2501.76 4383.44 2518.21 4383.44 2538.32V2585.23H4979.3V2538.32C4979.3 2518.21 4962.85 2501.76 4942.75 2501.76Z" fill="#FFF7E5"/>
<path d="M587.317 2725.76H63.9597C43.854 2725.76 28.013 2742.21 28.013 2762.32V2809.23H623.873V2762.32C623.873 2742.21 607.423 2725.76 587.317 2725.76Z" fill="#FFF7E5"/>
<path d="M1313.22 2725.76H789.864C769.759 2725.76 753.918 2742.21 753.918 2762.32V2809.23H1349.78V2762.32C1349.78 2742.21 1333.33 2725.76 1313.22 2725.76Z" fill="#FFF7E5"/>
<path d="M2039.13 2725.76H1515.77C1495.66 2725.76 1479.82 2742.21 1479.82 2762.32V2809.23H2075.68V2762.32C2075.68 2742.21 2059.23 2725.76 2039.13 2725.76Z" fill="#FFF7E5"/>
<path d="M2765.03 2725.76H2241.67C2221.57 2725.76 2205.73 2742.21 2205.73 2762.32V2809.23H2801.59V2762.32C2801.59 2742.21 2785.14 2725.76 2765.03 2725.76Z" fill="#FFF7E5"/>
<path d="M3490.94 2725.76H2967.58C2947.47 2725.76 2931.63 2742.21 2931.63 2762.32V2809.23H3527.49V2762.32C3527.49 2742.21 3511.04 2725.76 3490.94 2725.76Z" fill="#FFF7E5"/>
<path d="M4216.84 2725.76H3693.48C3673.38 2725.76 3657.54 2742.21 3657.54 2762.32V2809.23H4253.4V2762.32C4253.4 2742.21 4236.95 2725.76 4216.84 2725.76Z" fill="#FFF7E5"/>
<path d="M4942.75 2725.76H4419.39C4399.28 2725.76 4383.44 2742.21 4383.44 2762.32V2809.23H4979.3V2762.32C4979.3 2742.21 4962.85 2725.76 4942.75 2725.76Z" fill="#FFF7E5"/>
<path d="M587.317 2949.76H63.9597C43.854 2949.76 28.013 2966.21 28.013 2986.32V3033.23H623.873V2986.32C623.873 2966.21 607.423 2949.76 587.317 2949.76Z" fill="#FFF7E5"/>
<path d="M1313.22 2949.76H789.864C769.759 2949.76 753.918 2966.21 753.918 2986.32V3033.23H1349.78V2986.32C1349.78 2966.21 1333.33 2949.76 1313.22 2949.76Z" fill="#FFF7E5"/>
<path d="M2039.13 2949.76H1515.77C1495.66 2949.76 1479.82 2966.21 1479.82 2986.32V3033.23H2075.68V2986.32C2075.68 2966.21 2059.23 2949.76 2039.13 2949.76Z" fill="#FFF7E5"/>
<path d="M2765.03 2949.76H2241.67C2221.57 2949.76 2205.73 2966.21 2205.73 2986.32V3033.23H2801.59V2986.32C2801.59 2966.21 2785.14 2949.76 2765.03 2949.76Z" fill="#FFF7E5"/>
<path d="M3490.94 2949.76H2967.58C2947.47 2949.76 2931.63 2966.21 2931.63 2986.32V3033.23H3527.49V2986.32C3527.49 2966.21 3511.04 2949.76 3490.94 2949.76Z" fill="#FFF7E5"/>
<path d="M4216.84 2949.76H3693.48C3673.38 2949.76 3657.54 2966.21 3657.54 2986.32V3033.23H4253.4V2986.32C4253.4 2966.21 4236.95 2949.76 4216.84 2949.76Z" fill="#FFF7E5"/>
<path d="M4942.75 2949.76H4419.39C4399.28 2949.76 4383.44 2966.21 4383.44 2986.32V3033.23H4979.3V2986.32C4979.3 2966.21 4962.85 2949.76 4942.75 2949.76Z" fill="#FFF7E5"/>
<path d="M587.317 3173.76H63.9597C43.854 3173.76 28.013 3190.21 28.013 3210.32V3257.23H623.873V3210.32C623.873 3190.21 607.423 3173.76 587.317 3173.76Z" fill="#FFF7E5"/>
<path d="M1313.22 3173.76H789.864C769.759 3173.76 753.918 3190.21 753.918 3210.32V3257.23H1349.78V3210.32C1349.78 3190.21 1333.33 3173.76 1313.22 3173.76Z" fill="#FFF7E5"/>
<path d="M2039.13 3173.76H1515.77C1495.66 3173.76 1479.82 3190.21 1479.82 3210.32V3257.23H2075.68V3210.32C2075.68 3190.21 2059.23 3173.76 2039.13 3173.76Z" fill="#FFF7E5"/>
<path d="M2765.03 3173.76H2241.67C2221.57 3173.76 2205.73 3190.21 2205.73 3210.32V3257.23H2801.59V3210.32C2801.59 3190.21 2785.14 3173.76 2765.03 3173.76Z" fill="#FFF7E5"/>
<path d="M3490.94 3173.76H2967.58C2947.47 3173.76 2931.63 3190.21 2931.63 3210.32V3257.23H3527.49V3210.32C3527.49 3190.21 3511.04 3173.76 3490.94 3173.76Z" fill="#FFF7E5"/>
<path d="M4216.84 3173.76H3693.48C3673.38 3173.76 3657.54 3190.21 3657.54 3210.32V3257.23H4253.4V3210.32C4253.4 3190.21 4236.95 3173.76 4216.84 3173.76Z" fill="#FFF7E5"/>
<path d="M4942.75 3173.76H4419.39C4399.28 3173.76 4383.44 3190.21 4383.44 3210.32V3257.23H4979.3V3210.32C4979.3 3190.21 4962.85 3173.76 4942.75 3173.76Z" fill="#FFF7E5"/>
<path d="M587.317 3397.76H63.9597C43.854 3397.76 28.013 3414.21 28.013 3434.32V3481.23H623.873V3434.32C623.873 3414.21 607.423 3397.76 587.317 3397.76Z" fill="#FFF7E5"/>
<path d="M1313.22 3397.76H789.864C769.759 3397.76 753.918 3414.21 753.918 3434.32V3481.23H1349.78V3434.32C1349.78 3414.21 1333.33 3397.76 1313.22 3397.76Z" fill="#FFF7E5"/>
<path d="M2039.13 3397.76H1515.77C1495.66 3397.76 1479.82 3414.21 1479.82 3434.32V3481.23H2075.68V3434.32C2075.68 3414.21 2059.23 3397.76 2039.13 3397.76Z" fill="#FFF7E5"/>
<path d="M2765.03 3397.76H2241.67C2221.57 3397.76 2205.73 3414.21 2205.73 3434.32V3481.23H2801.59V3434.32C2801.59 3414.21 2785.14 3397.76 2765.03 3397.76Z" fill="#FFF7E5"/>
<path d="M3490.94 3397.76H2967.58C2947.47 3397.76 2931.63 3414.21 2931.63 3434.32V3481.23H3527.49V3434.32C3527.49 3414.21 3511.04 3397.76 3490.94 3397.76Z" fill="#FFF7E5"/>
<path d="M4216.84 3397.76H3693.48C3673.38 3397.76 3657.54 3414.21 3657.54 3434.32V3481.23H4253.4V3434.32C4253.4 3414.21 4236.95 3397.76 4216.84 3397.76Z" fill="#FFF7E5"/>
<path d="M4942.75 3397.76H4419.39C4399.28 3397.76 4383.44 3414.21 4383.44 3434.32V3481.23H4979.3V3434.32C4979.3 3414.21 4962.85 3397.76 4942.75 3397.76Z" fill="#FFF7E5"/>
<path d="M587.317 3621.76H63.9597C43.854 3621.76 28.013 3638.21 28.013 3658.32V3705.23H623.873V3658.32C623.873 3638.21 607.423 3621.76 587.317 3621.76Z" fill="#FFF7E5"/>
<path d="M1313.22 3621.76H789.864C769.759 3621.76 753.918 3638.21 753.918 3658.32V3705.23H1349.78V3658.32C1349.78 3638.21 1333.33 3621.76 1313.22 3621.76Z" fill="#FFF7E5"/>
<path d="M2039.13 3621.76H1515.77C1495.66 3621.76 1479.82 3638.21 1479.82 3658.32V3705.23H2075.68V3658.32C2075.68 3638.21 2059.23 3621.76 2039.13 3621.76Z" fill="#FFF7E5"/>
<path d="M2765.03 3621.76H2241.67C2221.57 3621.76 2205.73 3638.21 2205.73 3658.32V3705.23H2801.59V3658.32C2801.59 3638.21 2785.14 3621.76 2765.03 3621.76Z" fill="#FFF7E5"/>
<path d="M3490.94 3621.76H2967.58C2947.47 3621.76 2931.63 3638.21 2931.63 3658.32V3705.23H3527.49V3658.32C3527.49 3638.21 3511.04 3621.76 3490.94 3621.76Z" fill="#FFF7E5"/>
<path d="M4216.84 3621.76H3693.48C3673.38 3621.76 3657.54 3638.21 3657.54 3658.32V3705.23H4253.4V3658.32C4253.4 3638.21 4236.95 3621.76 4216.84 3621.76Z" fill="#FFF7E5"/>
<path d="M4942.75 3621.76H4419.39C4399.28 3621.76 4383.44 3638.21 4383.44 3658.32V3705.23H4979.3V3658.32C4979.3 3638.21 4962.85 3621.76 4942.75 3621.76Z" fill="#FFF7E5"/>
<path d="M587.317 3845.76H63.9597C43.854 3845.76 28.013 3862.21 28.013 3882.32V3929.23H623.873V3882.32C623.873 3862.21 607.423 3845.76 587.317 3845.76Z" fill="#FFF7E5"/>
<path d="M1313.22 3845.76H789.864C769.759 3845.76 753.918 3862.21 753.918 3882.32V3929.23H1349.78V3882.32C1349.78 3862.21 1333.33 3845.76 1313.22 3845.76Z" fill="#FFF7E5"/>
<path d="M2039.13 3845.76H1515.77C1495.66 3845.76 1479.82 3862.21 1479.82 3882.32V3929.23H2075.68V3882.32C2075.68 3862.21 2059.23 3845.76 2039.13 3845.76Z" fill="#FFF7E5"/>
<path d="M2765.03 3845.76H2241.67C2221.57 3845.76 2205.73 3862.21 2205.73 3882.32V3929.23H2801.59V3882.32C2801.59 3862.21 2785.14 3845.76 2765.03 3845.76Z" fill="#FFF7E5"/>
<path d="M3490.94 3845.76H2967.58C2947.47 3845.76 2931.63 3862.21 2931.63 3882.32V3929.23H3527.49V3882.32C3527.49 3862.21 3511.04 3845.76 3490.94 3845.76Z" fill="#FFF7E5"/>
<path d="M4216.84 3845.76H3693.48C3673.38 3845.76 3657.54 3862.21 3657.54 3882.32V3929.23H4253.4V3882.32C4253.4 3862.21 4236.95 3845.76 4216.84 3845.76Z" fill="#FFF7E5"/>
<path d="M4942.75 3845.76H4419.39C4399.28 3845.76 4383.44 3862.21 4383.44 3882.32V3929.23H4979.3V3882.32C4979.3 3862.21 4962.85 3845.76 4942.75 3845.76Z" fill="#FFF7E5"/>
<path d="M587.317 4069.76H63.9597C43.854 4069.76 28.013 4086.21 28.013 4106.32V4153.23H623.873V4106.32C623.873 4086.21 607.423 4069.76 587.317 4069.76Z" fill="#FFF7E5"/>
<path d="M1313.22 4069.76H789.864C769.759 4069.76 753.918 4086.21 753.918 4106.32V4153.23H1349.78V4106.32C1349.78 4086.21 1333.33 4069.76 1313.22 4069.76Z" fill="#FFF7E5"/>
<path d="M2039.13 4069.76H1515.77C1495.66 4069.76 1479.82 4086.21 1479.82 4106.32V4153.23H2075.68V4106.32C2075.68 4086.21 2059.23 4069.76 2039.13 4069.76Z" fill="#FFF7E5"/>
<path d="M2765.03 4069.76H2241.67C2221.57 4069.76 2205.73 4086.21 2205.73 4106.32V4153.23H2801.59V4106.32C2801.59 4086.21 2785.14 4069.76 2765.03 4069.76Z" fill="#FFF7E5"/>
<path d="M3490.94 4069.76H2967.58C2947.47 4069.76 2931.63 4086.21 2931.63 4106.32V4153.23H3527.49V4106.32C3527.49 4086.21 3511.04 4069.76 3490.94 4069.76Z" fill="#FFF7E5"/>
<path d="M4216.84 4069.76H3693.48C3673.38 4069.76 3657.54 4086.21 3657.54 4106.32V4153.23H4253.4V4106.32C4253.4 4086.21 4236.95 4069.76 4216.84 4069.76Z" fill="#FFF7E5"/>
<path d="M4942.75 4069.76H4419.39C4399.28 4069.76 4383.44 4086.21 4383.44 4106.32V4153.23H4979.3V4106.32C4979.3 4086.21 4962.85 4069.76 4942.75 4069.76Z" fill="#FFF7E5"/>
<path d="M587.317 4293.76H63.9597C43.854 4293.76 28.013 4310.21 28.013 4330.32V4377.23H623.873V4330.32C623.873 4310.21 607.423 4293.76 587.317 4293.76Z" fill="#FFF7E5"/>
<path d="M1313.22 4293.76H789.864C769.759 4293.76 753.918 4310.21 753.918 4330.32V4377.23H1349.78V4330.32C1349.78 4310.21 1333.33 4293.76 1313.22 4293.76Z" fill="#FFF7E5"/>
<path d="M2039.13 4293.76H1515.77C1495.66 4293.76 1479.82 4310.21 1479.82 4330.32V4377.23H2075.68V4330.32C2075.68 4310.21 2059.23 4293.76 2039.13 4293.76Z" fill="#FFF7E5"/>
<path d="M2765.03 4293.76H2241.67C2221.57 4293.76 2205.73 4310.21 2205.73 4330.32V4377.23H2801.59V4330.32C2801.59 4310.21 2785.14 4293.76 2765.03 4293.76Z" fill="#FFF7E5"/>
<path d="M3490.94 4293.76H2967.58C2947.47 4293.76 2931.63 4310.21 2931.63 4330.32V4377.23H3527.49V4330.32C3527.49 4310.21 3511.04 4293.76 3490.94 4293.76Z" fill="#FFF7E5"/>
<path d="M4216.84 4293.76H3693.48C3673.38 4293.76 3657.54 4310.21 3657.54 4330.32V4377.23H4253.4V4330.32C4253.4 4310.21 4236.95 4293.76 4216.84 4293.76Z" fill="#FFF7E5"/>
<path d="M4942.75 4293.76H4419.39C4399.28 4293.76 4383.44 4310.21 4383.44 4330.32V4377.23H4979.3V4330.32C4979.3 4310.21 4962.85 4293.76 4942.75 4293.76Z" fill="#FFF7E5"/>
<path d="M587.317 4517.76H63.9597C43.854 4517.76 28.013 4534.21 28.013 4554.32V4601.23H623.873V4554.32C623.873 4534.21 607.423 4517.76 587.317 4517.76Z" fill="#FFF7E5"/>
<path d="M1313.22 4517.76H789.864C769.759 4517.76 753.918 4534.21 753.918 4554.32V4601.23H1349.78V4554.32C1349.78 4534.21 1333.33 4517.76 1313.22 4517.76Z" fill="#FFF7E5"/>
<path d="M2039.13 4517.76H1515.77C1495.66 4517.76 1479.82 4534.21 1479.82 4554.32V4601.23H2075.68V4554.32C2075.68 4534.21 2059.23 4517.76 2039.13 4517.76Z" fill="#FFF7E5"/>
<path d="M2765.03 4517.76H2241.67C2221.57 4517.76 2205.73 4534.21 2205.73 4554.32V4601.23H2801.59V4554.32C2801.59 4534.21 2785.14 4517.76 2765.03 4517.76Z" fill="#FFF7E5"/>
<path d="M3490.94 4517.76H2967.58C2947.47 4517.76 2931.63 4534.21 2931.63 4554.32V4601.23H3527.49V4554.32C3527.49 4534.21 3511.04 4517.76 3490.94 4517.76Z" fill="#FFF7E5"/>
<path d="M4216.84 4517.76H3693.48C3673.38 4517.76 3657.54 4534.21 3657.54 4554.32V4601.23H4253.4V4554.32C4253.4 4534.21 4236.95 4517.76 4216.84 4517.76Z" fill="#FFF7E5"/>
<path d="M4942.75 4517.76H4419.39C4399.28 4517.76 4383.44 4534.21 4383.44 4554.32V4601.23H4979.3V4554.32C4979.3 4534.21 4962.85 4517.76 4942.75 4517.76Z" fill="#FFF7E5"/>
<path d="M587.317 4741.76H63.9597C43.854 4741.76 28.013 4758.21 28.013 4778.32V4825.23H623.873V4778.32C623.873 4758.21 607.423 4741.76 587.317 4741.76Z" fill="#FFF7E5"/>
<path d="M1313.22 4741.76H789.864C769.759 4741.76 753.918 4758.21 753.918 4778.32V4825.23H1349.78V4778.32C1349.78 4758.21 1333.33 4741.76 1313.22 4741.76Z" fill="#FFF7E5"/>
<path d="M2039.13 4741.76H1515.77C1495.66 4741.76 1479.82 4758.21 1479.82 4778.32V4825.23H2075.68V4778.32C2075.68 4758.21 2059.23 4741.76 2039.13 4741.76Z" fill="#FFF7E5"/>
<path d="M2765.03 4741.76H2241.67C2221.57 4741.76 2205.73 4758.21 2205.73 4778.32V4825.23H2801.59V4778.32C2801.59 4758.21 2785.14 4741.76 2765.03 4741.76Z" fill="#FFF7E5"/>
<path d="M3490.94 4741.76H2967.58C2947.47 4741.76 2931.63 4758.21 2931.63 4778.32V4825.23H3527.49V4778.32C3527.49 4758.21 3511.04 4741.76 3490.94 4741.76Z" fill="#FFF7E5"/>
<path d="M4216.84 4741.76H3693.48C3673.38 4741.76 3657.54 4758.21 3657.54 4778.32V4825.23H4253.4V4778.32C4253.4 4758.21 4236.95 4741.76 4216.84 4741.76Z" fill="#FFF7E5"/>
<path d="M4942.75 4741.76H4419.39C4399.28 4741.76 4383.44 4758.21 4383.44 4778.32V4825.23H4979.3V4778.32C4979.3 4758.21 4962.85 4741.76 4942.75 4741.76Z" fill="#FFF7E5"/>
<path d="M587.317 4965.76H63.9597C43.854 4965.76 28.013 4982.21 28.013 5002.32V5049.23H623.873V5002.32C623.873 4982.21 607.423 4965.76 587.317 4965.76Z" fill="#FFF7E5"/>
<path d="M1313.22 4965.76H789.864C769.759 4965.76 753.918 4982.21 753.918 5002.32V5049.23H1349.78V5002.32C1349.78 4982.21 1333.33 4965.76 1313.22 4965.76Z" fill="#FFF7E5"/>
<path d="M2039.13 4965.76H1515.77C1495.66 4965.76 1479.82 4982.21 1479.82 5002.32V5049.23H2075.68V5002.32C2075.68 4982.21 2059.23 4965.76 2039.13 4965.76Z" fill="#FFF7E5"/>
<path d="M2765.03 4965.76H2241.67C2221.57 4965.76 2205.73 4982.21 2205.73 5002.32V5049.23H2801.59V5002.32C2801.59 4982.21 2785.14 4965.76 2765.03 4965.76Z" fill="#FFF7E5"/>
<path d="M3490.94 4965.76H2967.58C2947.47 4965.76 2931.63 4982.21 2931.63 5002.32V5049.23H3527.49V5002.32C3527.49 4982.21 3511.04 4965.76 3490.94 4965.76Z" fill="#FFF7E5"/>
<path d="M4216.84 4965.76H3693.48C3673.38 4965.76 3657.54 4982.21 3657.54 5002.32V5049.23H4253.4V5002.32C4253.4 4982.21 4236.95 4965.76 4216.84 4965.76Z" fill="#FFF7E5"/>
<path d="M4942.75 4965.76H4419.39C4399.28 4965.76 4383.44 4982.21 4383.44 5002.32V5049.23H4979.3V5002.32C4979.3 4982.21 4962.85 4965.76 4942.75 4965.76Z" fill="#FFF7E5"/>
</g>
<defs>
<clipPath id="clip0_2050_36">
<rect width="5000" height="5000" fill="white"/>
</clipPath>
</defs>
</svg>
