<svg width="3000" height="3000" viewBox="0 0 3000 3000" fill="none" xmlns="http://www.w3.org/2000/svg">
<rect width="3000" height="3000" fill="#2E294E"/>
<path d="M2647.82 1646.67C2655.32 1646.67 2661.06 1648.42 2665.01 1651.9C2668.97 1655.33 2670.89 1660 2670.77 1665.9H2661.11C2660.94 1662.18 2659.58 1659.49 2657.04 1657.84C2654.5 1656.18 2651.28 1655.36 2647.38 1655.36C2643.89 1655.36 2640.97 1655.98 2638.61 1657.22C2636.24 1658.46 2635.06 1660.47 2635.06 1663.24C2635.06 1664.43 2635.33 1665.46 2635.86 1666.35C2636.45 1667.17 2637.4 1667.94 2638.7 1668.65C2640 1669.3 2641.77 1669.95 2644.01 1670.6C2646.32 1671.19 2649.12 1671.84 2652.43 1672.55C2655.27 1673.02 2657.92 1673.67 2660.41 1674.5C2662.89 1675.33 2665.04 1676.36 2666.87 1677.6C2668.76 1678.84 2670.24 1680.44 2671.3 1682.38C2672.37 1684.33 2672.9 1686.73 2672.9 1689.56C2672.9 1692.81 2672.07 1695.71 2670.42 1698.25C2668.76 1700.73 2666.22 1702.71 2662.8 1704.18C2659.43 1705.6 2655.06 1706.31 2649.68 1706.31C2645.61 1706.31 2642.03 1705.84 2638.96 1704.89C2635.95 1703.89 2633.38 1702.62 2631.25 1701.08C2629.13 1699.49 2627.41 1697.77 2626.11 1695.94C2624.87 1694.11 2623.99 1692.34 2623.45 1690.62C2622.98 1688.85 2622.83 1687.35 2623.01 1686.11H2632.85C2633.08 1688.29 2633.94 1690.27 2635.42 1692.04C2636.95 1693.76 2638.96 1695.11 2641.44 1696.12C2643.98 1697.06 2646.88 1697.54 2650.13 1697.54C2653.02 1697.54 2655.41 1697.18 2657.3 1696.47C2659.19 1695.76 2660.58 1694.79 2661.47 1693.55C2662.41 1692.25 2662.89 1690.74 2662.89 1689.03C2662.89 1687.32 2662.32 1685.99 2661.2 1685.04C2660.14 1684.04 2658.49 1683.21 2656.24 1682.56C2654 1681.85 2651.13 1681.17 2647.65 1680.52C2644.75 1679.99 2641.95 1679.28 2639.23 1678.4C2636.51 1677.51 2634.06 1676.39 2631.87 1675.03C2629.75 1673.67 2628.06 1672.02 2626.82 1670.07C2625.58 1668.06 2624.96 1665.7 2624.96 1662.98C2624.96 1659.91 2625.82 1657.13 2627.53 1654.65C2629.3 1652.17 2631.9 1650.22 2635.33 1648.8C2638.75 1647.38 2642.92 1646.67 2647.82 1646.67ZM431.5 1696.47H467.298V1705.16H421.397V1647.74H431.5V1696.47ZM1207.69 1705.16H1196.79L1191.08 1691.69H1163.05L1157.36 1705.16H1146.55L1171.63 1647.74H1182.44L1207.69 1705.16ZM1918.93 1647.74C1925.96 1647.74 1931.34 1649.07 1935.06 1651.73C1938.84 1654.32 1940.73 1658.11 1940.73 1663.07C1940.73 1666.26 1939.99 1668.8 1938.52 1670.69C1937.1 1672.52 1935.06 1673.91 1932.4 1674.85C1930.66 1675.43 1928.71 1675.87 1926.56 1676.17C1928 1676.3 1929.38 1676.47 1930.72 1676.71C1933.08 1677.07 1935.15 1677.72 1936.92 1678.66C1938.64 1679.55 1939.99 1680.77 1940.98 1682.33L1941.37 1682.97C1942.3 1684.58 1942.77 1686.63 1942.77 1689.12C1942.77 1692.66 1941.88 1695.59 1940.11 1697.89C1938.34 1700.2 1935.89 1701.97 1932.76 1703.21C1929.62 1704.39 1926.02 1705.04 1921.94 1705.16H1889.69V1647.74H1918.93ZM1899.79 1696.56H1920.44C1924.28 1696.56 1927.26 1695.91 1929.39 1694.61C1931.51 1693.25 1932.58 1691.16 1932.58 1688.32C1932.58 1686.08 1931.93 1684.45 1930.63 1683.45C1929.33 1682.38 1927.65 1681.71 1925.58 1681.41C1923.57 1681.11 1921.41 1680.97 1919.11 1680.97H1899.79V1696.56ZM1166.68 1683.09H1187.44L1177.04 1658.56L1166.68 1683.09ZM1899.79 1672.55H1918.31C1922.15 1672.55 1925.1 1671.9 1927.17 1670.6C1929.3 1669.24 1930.36 1667.11 1930.36 1664.22C1930.36 1661.38 1929.3 1659.37 1927.17 1658.19C1925.1 1656.95 1922.39 1656.33 1919.02 1656.33H1899.79V1672.55ZM1008.59 1294.69C1060.39 1295.1 1102.25 1336.96 1102.67 1388.76V1402.85C1102.25 1452.58 1063.71 1493.61 1013.98 1496.51L1102.67 1584.79H1032.63C1026 1585.2 1016.84 1584.79 1013.98 1571.73C1013.98 1571.73 984.974 1452.58 819.49 1439.74C654.063 1426.89 1005.86 1439.73 1006.1 1439.74C1028.07 1439.74 1045.89 1421.92 1045.89 1399.95V1391.66C1045.89 1369.7 1028.07 1351.88 1006.1 1351.88H754.133V1560.33C754.133 1574.01 742.944 1584.79 729.268 1584.79H697.357V1294.69H1008.59ZM643.333 1294.69C657.009 1295.1 668.199 1305.88 668.199 1319.55V1584.79H636.288C622.612 1584.79 611.423 1574.01 611.422 1560.33V1351.88H551.331L347.018 1576.91C342.045 1582.3 335.414 1585.2 328.369 1584.79H262.889L519.004 1302.98C523.563 1297.59 530.194 1294.69 537.24 1294.69H643.333ZM2711.59 1294.69C2725.26 1295.1 2736.45 1305.88 2736.45 1319.55V1351.88H2561.98V1560.33C2561.98 1574.01 2550.79 1584.79 2537.11 1584.79H2505.2V1351.88H1924.7C1926.65 1358.72 1927.69 1365.94 1927.69 1373.43V1584.79H1895.78C1882.1 1584.79 1870.91 1574.01 1870.91 1560.33V1375.09C1870.91 1362.24 1860.55 1351.88 1847.71 1351.88H1602.35C1589.51 1351.89 1579.16 1362.24 1579.16 1375.09V1560.33C1579.16 1574.01 1567.97 1584.79 1554.29 1584.79H1522.38V1373.01C1522.38 1365.69 1523.39 1358.6 1525.27 1351.88H1242.91C1198.98 1351.88 1163.75 1387.1 1163.75 1431.03V1448.85C1163.75 1492.78 1198.98 1528.01 1242.91 1528.01H1487.42C1501.1 1528.01 1512.28 1539.2 1512.28 1552.88V1584.79H1239.18C1166.24 1584.79 1106.98 1525.52 1106.98 1452.58V1427.3C1106.98 1354.36 1166.24 1295.1 1239.18 1295.1H1592.88C1595.32 1294.85 1597.79 1294.71 1600.29 1294.69H2711.59ZM2345 1528.01C2358.67 1528.01 2369.86 1539.2 2369.86 1552.88V1584.79H1964.55V1552.88C1964.55 1539.2 1975.33 1528.01 1989.01 1528.01H2345ZM2341.27 1443.47C2341.27 1457.14 2330.08 1468.33 2316.4 1468.33H1964.55V1436.42C1964.55 1422.74 1975.33 1411.56 1989.01 1411.56H2341.27V1443.47Z" fill="#E8C1C5"/>
</svg>
